<svg width="43" height="50" viewBox="0 0 43 50" fill="none" xmlns="http://www.w3.org/2000/svg">
<path d="M25.0241 11.1995C25.0085 11.1955 24.9925 11.1935 24.9767 11.1935C24.9424 11.1935 24.9087 11.2027 24.8785 11.2207C24.8344 11.2471 24.8032 11.2889 24.7906 11.3388L24.4605 12.6439C24.448 12.6937 24.4555 12.7453 24.4817 12.7895C24.508 12.8336 24.55 12.8649 24.5999 12.8775C24.6496 12.8901 24.7013 12.8825 24.7454 12.8562C24.7895 12.8299 24.8208 12.788 24.8334 12.7381L25.1633 11.4331C25.1894 11.3302 25.1269 11.2254 25.0241 11.1995Z" fill="#48A146"/>
<path d="M11.9707 4.10905H9.6084V5.42614H11.9707V4.10905Z" fill="#B25420"/>
<path d="M21.8829 17.6548C21.9325 17.6681 21.9843 17.6612 22.0289 17.6356C22.1207 17.5825 22.1523 17.4647 22.0993 17.3728L21.4262 16.207C21.4005 16.1625 21.3591 16.1308 21.3095 16.1174C21.2929 16.113 21.2761 16.1108 21.2594 16.1108C21.2261 16.1108 21.1932 16.1196 21.1635 16.1366C21.0717 16.1897 21.0401 16.3075 21.0931 16.3993L21.7663 17.5652C21.792 17.6097 21.8333 17.6415 21.8829 17.6548Z" fill="#48A146"/>
<path d="M13.2208 4.63791C13.2208 4.34631 12.9836 4.10905 12.692 4.10905H12.3555V5.42614H13.2208V4.63791Z" fill="#B25420"/>
<path d="M9.87935 21.3926L11.0451 22.0657C11.0896 22.0914 11.1415 22.0982 11.1911 22.0849C11.2407 22.0716 11.2821 22.0398 11.3078 21.9954C11.3608 21.9035 11.3292 21.7856 11.2374 21.7326L10.0716 21.0595C10.042 21.0424 10.0091 21.0337 9.9758 21.0337C9.95912 21.0337 9.94226 21.0358 9.92569 21.0403C9.87609 21.0536 9.83455 21.0854 9.80889 21.1299C9.75592 21.2218 9.78752 21.3397 9.87935 21.3926Z" fill="#48A146"/>
<path d="M9.22376 4.10905H8.21685C7.92525 4.10905 7.68799 4.34631 7.68799 4.63791V5.42614H9.22376V4.10905Z" fill="#B25420"/>
<path d="M25.679 19.7743C25.0529 19.7743 24.5435 20.2837 24.5435 20.9098C24.5435 21.5359 25.0529 22.0453 25.679 22.0453C26.3051 22.0453 26.8144 21.5359 26.8144 20.9098C26.8144 20.2837 26.3051 19.7743 25.679 19.7743Z" fill="#E53722"/>
<path d="M16.5148 12.3598C16.3384 12.6316 16.3125 12.9253 16.4377 13.2326C16.5327 13.4659 16.6189 13.5249 16.6441 13.528C16.7026 13.5362 16.8311 13.4287 16.8985 13.336C16.9533 13.2606 17.0409 13.2165 17.1326 13.2165C17.1451 13.2165 17.1578 13.2173 17.1704 13.219C17.2753 13.233 17.3647 13.3028 17.4023 13.4017L17.5682 13.8374L17.9726 13.6835L17.8067 13.2478C17.7689 13.1484 17.7889 13.0361 17.8587 12.9558C17.9286 12.8754 18.0373 12.8402 18.1408 12.8641C18.2515 12.888 18.4182 12.8821 18.4571 12.838C18.4738 12.8189 18.499 12.7176 18.4149 12.4802C18.304 12.1674 18.0894 11.9652 17.7769 11.8794C17.5722 11.8232 17.351 11.8365 17.1373 11.918C17.1373 11.918 17.1373 11.918 17.1372 11.918L17.0181 11.9633C16.8043 12.0446 16.6302 12.1817 16.5148 12.3598Z" fill="#EFD2C0"/>
<path d="M8.72069 16.7045C8.82092 16.5808 9.00252 16.5616 9.12641 16.6619C9.25023 16.7622 9.26926 16.9438 9.16903 17.0677L3.85629 23.6283H38.7391L35.2292 19.294C35.1289 19.1702 35.148 18.9885 35.2718 18.8882C35.3954 18.7879 35.5772 18.807 35.6775 18.9309L39.4815 23.6283H40.3471L34.6853 16.6366C34.6219 16.7101 34.5571 16.7824 34.4904 16.8528C34.4904 16.8528 34.3619 16.9917 34.1673 17.1343C33.9741 17.2782 33.7121 17.4192 33.4837 17.4483C33.5787 17.2386 33.7551 17.022 33.8997 16.847C34.0454 16.6734 34.1641 16.5449 34.1641 16.5449C34.2449 16.4597 34.322 16.3712 34.3975 16.2814L27.6994 8.00996C27.675 8.03408 27.5866 8.11819 27.4595 8.20093C27.3104 8.29945 27.1069 8.39025 26.9217 8.38648C26.9745 8.20899 27.0944 8.04093 27.1963 7.90968C27.2988 7.77945 27.3868 7.68808 27.3868 7.68808C27.3963 7.67842 27.4053 7.66819 27.4147 7.65842L22.1746 1.1875C21.9594 0.92179 21.6398 0.769333 21.2978 0.769333C20.9558 0.769333 20.6362 0.92179 20.421 1.1875L9.50612 14.6658C9.57012 14.7441 9.6356 14.8212 9.70486 14.8949C9.70486 14.8949 9.79869 14.9976 9.91086 15.1401C10.0222 15.2839 10.1564 15.4646 10.2218 15.6505C10.0247 15.6464 9.80406 15.5409 9.64332 15.4275C9.48126 15.3153 9.37703 15.2013 9.37703 15.2013C9.32229 15.143 9.26932 15.0831 9.2176 15.0221L2.24829 23.6283H3.11389L8.72069 16.7045ZM7.74103 22.2862C7.72892 22.3505 7.70732 22.43 7.65669 22.5146C7.60669 22.5989 7.51989 22.6896 7.40052 22.7397C7.28103 22.7921 7.13446 22.7957 7.01361 22.7361C6.89143 22.6734 6.83515 22.5725 6.81361 22.4869C6.79166 22.3996 6.80926 22.3238 6.83166 22.2813C6.84366 22.2597 6.85406 22.245 6.86286 22.2361C6.87109 22.2273 6.87543 22.2226 6.87543 22.2226C6.87543 22.2226 6.8764 22.2294 6.87818 22.2423C6.87938 22.2545 6.88395 22.2725 6.89086 22.292C6.90526 22.332 6.94035 22.3759 6.98646 22.4026C7.03103 22.4305 7.0908 22.4427 7.12698 22.432C7.1632 22.4208 7.20069 22.4066 7.24738 22.3869C7.29583 22.3666 7.34703 22.3455 7.40235 22.313C7.45818 22.2805 7.51578 22.2399 7.56766 22.203C7.61949 22.1658 7.66583 22.1333 7.69943 22.1118C7.73303 22.0901 7.75383 22.079 7.75383 22.079C7.75383 22.079 7.75538 22.0989 7.75509 22.1345C7.75463 22.1701 7.75269 22.2215 7.74103 22.2862ZM8.10057 20.7196C7.85269 20.7196 7.85309 20.335 8.10057 20.335C8.34846 20.335 8.34806 20.7196 8.10057 20.7196ZM35.9612 22.186C36.2091 22.186 36.2087 22.5706 35.9612 22.5706C35.7133 22.5706 35.7137 22.186 35.9612 22.186ZM35.0798 21.7373C35.3277 21.7373 35.3273 22.1219 35.0798 22.1219C34.8319 22.1218 34.8323 21.7373 35.0798 21.7373ZM35.0157 22.6507C35.2635 22.6507 35.2631 23.0353 35.0157 23.0353C34.7678 23.0353 34.7682 22.6507 35.0157 22.6507ZM11.3458 17.6876C11.3458 16.7434 12.1139 15.9752 13.0582 15.9752C14.0025 15.9752 14.7706 16.7434 14.7706 17.6876C14.7706 18.6319 14.0025 19.4001 13.0582 19.4001C12.114 19.4001 11.3458 18.6319 11.3458 17.6876ZM13.3009 13.9488C13.5488 13.9488 13.5484 14.3334 13.3009 14.3334C13.053 14.3334 13.0534 13.9488 13.3009 13.9488ZM14.5031 21.9575C14.4303 22.0802 14.2969 22.1792 14.1177 22.1896C14.029 22.1949 13.9255 22.1662 13.8497 22.1031C13.773 22.0408 13.7325 21.9549 13.7188 21.8809C13.6913 21.732 13.7453 21.6123 13.7954 21.5416C13.8473 21.469 13.8981 21.4291 13.9324 21.4018C13.9671 21.3752 13.9874 21.3624 13.9874 21.3624C13.9874 21.3624 13.9867 21.3892 13.9825 21.435C13.9787 21.4805 13.9706 21.5464 13.9729 21.6156C13.9739 21.6846 13.9961 21.7522 14.0301 21.7893C14.0467 21.8073 14.0627 21.8117 14.0713 21.8089C14.0785 21.807 14.0832 21.8046 14.1001 21.8054C14.135 21.8056 14.195 21.7932 14.2383 21.7698C14.2917 21.7366 14.3433 21.6799 14.3849 21.6228C14.4269 21.5657 14.4611 21.5113 14.4865 21.4742C14.5115 21.4367 14.5274 21.4156 14.5274 21.4156C14.5274 21.4156 14.5355 21.4372 14.5465 21.4774C14.557 21.5178 14.5711 21.577 14.5741 21.6574C14.5763 21.7365 14.5675 21.8437 14.5031 21.9575ZM14.6631 20.359C14.4152 20.359 14.4156 19.9744 14.6631 19.9744C14.911 19.9744 14.9106 20.359 14.6631 20.359ZM15.4323 20.8398C15.1845 20.8398 15.1849 20.4552 15.4323 20.4552C15.6802 20.4552 15.6798 20.8398 15.4323 20.8398ZM15.4804 19.8302C15.2325 19.8302 15.2329 19.4456 15.4804 19.4456C15.7283 19.4456 15.7279 19.8302 15.4804 19.8302ZM16.4238 17.6688C16.4157 17.6369 16.4093 17.6042 16.4039 17.571L16.3915 17.4849C16.3839 17.4288 16.3768 17.375 16.3682 17.324C16.3516 17.222 16.3261 17.1315 16.2878 17.0751C16.269 17.0464 16.2478 17.0262 16.2221 17.0081C16.1936 16.9896 16.1536 16.9708 16.1023 16.9504C16.0519 16.9296 15.9923 16.9074 15.927 16.8706C15.863 16.8356 15.7899 16.7785 15.7425 16.7044C15.6928 16.6326 15.6659 16.5472 15.659 16.4749C15.6507 16.4018 15.6538 16.3352 15.6607 16.2776C15.6739 16.1604 15.6955 16.0647 15.7003 15.9821C15.7048 15.8991 15.6962 15.8418 15.6636 15.7885C15.63 15.735 15.5694 15.6849 15.4988 15.64C15.4287 15.5947 15.351 15.552 15.2774 15.5029C15.2035 15.4541 15.1334 15.3918 15.0819 15.3263C14.9787 15.1926 14.9349 15.0483 14.9205 14.9247C14.9069 14.8 14.9245 14.6942 14.949 14.6142C14.9728 14.5334 15.0078 14.4791 15.0299 14.4434C15.0555 14.4101 15.0689 14.3925 15.0689 14.3925C15.0689 14.3925 15.0608 14.4122 15.0453 14.4497C15.0331 14.4882 15.0139 14.5449 15.0089 14.6209C15.0027 14.6962 15.0079 14.79 15.0375 14.8914C15.0693 14.9916 15.1246 15.101 15.2157 15.1873C15.2623 15.2305 15.3109 15.265 15.3774 15.2972C15.443 15.3301 15.5209 15.3598 15.6071 15.4C15.6921 15.441 15.7922 15.4903 15.881 15.5885C15.9722 15.6841 16.0211 15.8349 16.024 15.9553C16.0311 16.0792 16.0152 16.1869 16.0102 16.2829C16.0082 16.3293 16.0075 16.3737 16.0123 16.4084C16.0176 16.4429 16.0268 16.4673 16.0378 16.4855C16.0508 16.5036 16.0633 16.5168 16.0932 16.5337C16.1214 16.5506 16.1658 16.5677 16.2177 16.5872C16.2706 16.6075 16.3329 16.6294 16.4016 16.6686C16.4714 16.7078 16.5399 16.7682 16.589 16.8353C16.6888 16.973 16.7195 17.1177 16.7401 17.2411C16.7499 17.3037 16.7559 17.3632 16.7616 17.4194C16.7673 17.476 16.7721 17.5301 16.7793 17.5703C16.7939 17.6578 16.8258 17.7424 16.865 17.8041C16.9067 17.8673 16.946 17.8927 16.9848 17.8981C17.0246 17.9049 17.0692 17.8886 17.1137 17.842C17.157 17.7957 17.188 17.7345 17.2005 17.6676C17.2286 17.5248 17.2002 17.358 17.1917 17.1933C17.1824 17.0276 17.1993 16.8601 17.2715 16.7266C17.3049 16.6617 17.3565 16.603 17.4111 16.5658C17.4654 16.5284 17.5215 16.5079 17.5733 16.4975C17.6775 16.4759 17.765 16.5024 17.8137 16.5332C17.8382 16.5487 17.855 16.5631 17.8648 16.5741C17.8749 16.5847 17.88 16.5901 17.88 16.5901C17.88 16.5901 17.8739 16.5858 17.8622 16.5775C17.8509 16.5689 17.8321 16.5584 17.8071 16.5484C17.757 16.5285 17.6765 16.5207 17.5923 16.5548C17.5087 16.5866 17.42 16.6595 17.3848 16.7717C17.3462 16.8824 17.3522 17.0168 17.3817 17.1617C17.4091 17.3078 17.4697 17.4719 17.4631 17.6845C17.4594 17.7909 17.426 17.911 17.3554 18.0132C17.3195 18.0648 17.273 18.1141 17.2126 18.1533C17.1529 18.1926 17.0763 18.2205 16.9974 18.223C16.9205 18.2284 16.836 18.2088 16.767 18.1712C16.6971 18.1338 16.6414 18.0825 16.5966 18.0281C16.5074 17.918 16.4572 17.7962 16.4238 17.6688ZM19.7633 21.7258C19.594 22.1217 19.3634 22.3366 19.0778 22.3648C18.913 22.3809 18.766 22.3288 18.6451 22.255L18.5204 22.5662C18.4919 22.6372 18.4365 22.694 18.3661 22.7241C18.3299 22.7396 18.2913 22.7474 18.2526 22.7474C18.2162 22.7474 18.1798 22.7405 18.1454 22.7267L17.2082 22.3512C17.1372 22.3228 17.0803 22.2673 17.0503 22.1969C17.0202 22.1266 17.0193 22.0472 17.0477 21.9762L17.1723 21.665C17.0338 21.6349 16.8914 21.5711 16.7834 21.4457C16.5963 21.2281 16.5778 20.9134 16.7287 20.5101C16.9123 20.0192 17.2739 19.6918 17.7742 19.5637C18.0993 19.4805 18.4439 19.5057 18.7707 19.6366L18.889 19.6841C19.2159 19.815 19.4827 20.0348 19.6603 20.3193C19.9338 20.7574 19.9694 21.2438 19.7633 21.7258ZM21.2977 8.75482C20.3535 8.75482 19.5853 7.98665 19.5853 7.04242C19.5853 6.09813 20.3535 5.32996 21.2977 5.32996C22.242 5.32996 23.0102 6.09813 23.0102 7.04242C23.0102 7.98665 22.242 8.75482 21.2977 8.75482ZM21.8266 13.6443C21.5787 13.6443 21.5791 13.2597 21.8266 13.2597C22.0745 13.2597 22.0741 13.6443 21.8266 13.6443ZM20.3922 10.4422C20.3626 10.3977 20.3402 10.3464 20.3257 10.3004C20.3114 10.2546 20.3024 10.2102 20.2966 10.169C20.285 10.0866 20.2835 10.0153 20.2787 9.95602C20.2726 9.83888 20.2405 9.75836 20.2118 9.73693C20.1938 9.72013 20.1705 9.7143 20.1641 9.71236C20.1582 9.71276 20.164 9.70585 20.1499 9.71408C20.1345 9.72253 20.1047 9.75339 20.0465 9.77899C19.9889 9.80453 19.9169 9.80385 19.865 9.78465C19.8121 9.76602 19.7746 9.73613 19.7458 9.70545C19.6894 9.64322 19.6598 9.57253 19.6528 9.49585C19.6478 9.36482 19.6839 9.28322 19.6932 9.21893C19.6964 9.20288 19.6982 9.18808 19.6996 9.1747C19.7006 9.16356 19.7011 9.15185 19.6998 9.14042C19.6977 9.11745 19.6915 9.09591 19.6838 9.07876C19.6505 9.00813 19.6092 9.01659 19.6096 9.0139C19.6098 9.0147 19.6172 9.00785 19.637 9.00465C19.6561 9.0015 19.6935 9.00722 19.7321 9.04305C19.7705 9.07642 19.8074 9.1403 19.8151 9.2207C19.8262 9.29876 19.8191 9.39122 19.8429 9.46396C19.8534 9.4943 19.8751 9.5215 19.9013 9.53819C19.9138 9.54613 19.927 9.55025 19.9342 9.54893C19.9373 9.54796 19.9386 9.54676 19.939 9.54505C19.9388 9.54436 19.9389 9.5443 19.9379 9.54156C19.9329 9.53653 19.9411 9.5311 19.9635 9.50562C19.9842 9.48167 20.0349 9.44362 20.0831 9.42825C20.1843 9.39362 20.2866 9.41145 20.3723 9.45453C20.4153 9.47619 20.457 9.50745 20.4911 9.54562C20.5232 9.58099 20.5498 9.62082 20.5701 9.66116C20.611 9.74242 20.6304 9.82419 20.643 9.8999C20.6551 9.97562 20.6609 10.0424 20.6708 10.0989C20.6807 10.1554 20.6939 10.1995 20.7109 10.2263C20.7289 10.257 20.7499 10.2705 20.7514 10.271C20.7561 10.2725 20.7548 10.2791 20.779 10.2665C20.8011 10.2528 20.8305 10.2197 20.8513 10.1813C20.8737 10.1421 20.8862 10.1053 20.9002 10.0457C20.9274 9.93505 20.9481 9.79951 21.0217 9.67876C21.0952 9.55448 21.2198 9.48945 21.3153 9.46533C21.4139 9.43813 21.4985 9.4331 21.5719 9.42476C21.6454 9.41716 21.7084 9.40922 21.7603 9.3963C21.812 9.38345 21.8527 9.36756 21.8796 9.35419C21.9066 9.33979 21.9208 9.33225 21.9208 9.33225C21.9208 9.33225 21.9104 9.34408 21.8905 9.36665C21.8698 9.38865 21.8361 9.41819 21.7887 9.44945C21.7413 9.48013 21.6804 9.51019 21.6119 9.53985C21.5442 9.56985 21.4665 9.59899 21.3996 9.63836C21.3305 9.67785 21.2837 9.7251 21.2612 9.78745C21.2361 9.85173 21.2325 9.94967 21.2233 10.0778C21.2207 10.1102 21.2175 10.1433 21.2111 10.182C21.2044 10.2236 21.1929 10.2636 21.1786 10.3037C21.1486 10.3831 21.1066 10.4631 21.0292 10.5365C20.9906 10.5725 20.942 10.6072 20.8805 10.6287C20.8192 10.6507 20.7498 10.6564 20.6842 10.6454C20.5464 10.621 20.4493 10.5309 20.3922 10.4422ZM20.9612 12.827C20.7133 12.827 20.7137 12.4424 20.9612 12.4424C21.2091 12.4424 21.2086 12.827 20.9612 12.827ZM20.9291 13.9808C20.6813 13.9808 20.6817 13.5962 20.9291 13.5962C21.177 13.5962 21.1766 13.9808 20.9291 13.9808ZM20.6766 16.6397C20.4911 16.3184 20.6016 15.9059 20.923 15.7203C21.0787 15.6305 21.2601 15.6065 21.4338 15.653C21.6074 15.6996 21.7526 15.8109 21.8425 15.9666L22.5155 17.1324C22.7011 17.4538 22.5905 17.8663 22.2691 18.0518C22.1655 18.1117 22.0503 18.1423 21.9337 18.1423C21.8752 18.1423 21.8163 18.1346 21.7584 18.119C21.5847 18.0725 21.4396 17.9612 21.3498 17.8054L20.6766 16.6397ZM22.0509 19.702C21.803 19.702 21.8034 19.3173 22.0509 19.3173C22.2988 19.3174 22.2984 19.702 22.0509 19.702ZM22.662 21.3925C22.591 21.5552 22.468 21.7129 22.4357 21.8622C22.4195 21.9318 22.4254 22.0116 22.4401 22.1221C22.4511 22.2306 22.4822 22.365 22.443 22.5399C22.4228 22.6209 22.3909 22.6992 22.3368 22.7722C22.2849 22.8442 22.203 22.9137 22.0996 22.9442C21.9978 22.9747 21.8856 22.9607 21.7998 22.916C21.7147 22.8714 21.6568 22.8088 21.6155 22.7456C21.5742 22.6819 21.5483 22.6155 21.5331 22.5478C21.519 22.479 21.517 22.422 21.5179 22.3668C21.5207 22.2579 21.5353 22.1703 21.5407 22.0952C21.5565 21.9502 21.5242 21.8417 21.4827 21.7804C21.4415 21.7192 21.3973 21.7056 21.3988 21.7038C21.3977 21.7069 21.4441 21.6911 21.5243 21.7369C21.6029 21.7813 21.6989 21.9048 21.7326 22.0808C21.7697 22.2482 21.775 22.4585 21.8755 22.551C21.8991 22.5757 21.9262 22.5939 21.946 22.5984C21.9659 22.6036 21.9762 22.5991 21.9873 22.5932C21.9961 22.5884 22.0082 22.5777 22.0251 22.5544C22.0409 22.5305 22.0573 22.4962 22.0669 22.458C22.0775 22.4182 22.0803 22.3869 22.0805 22.3336C22.0805 22.2834 22.0771 22.2281 22.0747 22.1684C22.0695 22.0512 22.0705 21.9072 22.1223 21.777C22.1727 21.6506 22.2474 21.5625 22.3131 21.4902C22.3796 21.4182 22.4423 21.359 22.4917 21.3032C22.5913 21.1906 22.6471 21.0729 22.6576 20.9785C22.6634 20.9316 22.6583 20.8926 22.6542 20.8658C22.6477 20.8392 22.6443 20.8252 22.6443 20.8252C22.6443 20.8252 22.6528 20.8366 22.6689 20.8583C22.6828 20.8814 22.7038 20.9174 22.717 20.9689C22.7452 21.0718 22.7346 21.2289 22.662 21.3925ZM22.8041 20.3109C22.5562 20.3109 22.5566 19.9263 22.8041 19.9263C23.052 19.9264 23.0516 20.3109 22.8041 20.3109ZM23.0766 19.4296C22.8287 19.4296 22.8291 19.0449 23.0766 19.0449C23.3245 19.0449 23.3241 19.4296 23.0766 19.4296ZM23.8358 14.2674C23.8271 14.1768 23.8218 14.1 23.81 14.0484C23.8046 14.0233 23.7971 14.0042 23.7928 13.994C23.7855 13.983 23.7957 13.9822 23.7782 13.9724C23.7602 13.9626 23.7179 13.9549 23.6663 13.9321C23.6151 13.9088 23.5752 13.8751 23.5462 13.8405C23.4882 13.7706 23.4658 13.6982 23.4557 13.6377C23.4466 13.5776 23.4492 13.5292 23.4524 13.4912C23.4601 13.4155 23.4691 13.3774 23.4691 13.3774C23.4691 13.3774 23.4846 13.4158 23.5122 13.4844C23.5395 13.5501 23.5882 13.6544 23.6777 13.7C23.699 13.7108 23.7211 13.7167 23.741 13.7163C23.7594 13.7165 23.7874 13.7123 23.835 13.7156C23.882 13.7169 23.9569 13.7445 24.0032 13.7865C24.0524 13.828 24.0859 13.8777 24.111 13.9269C24.16 14.0264 24.1795 14.121 24.1988 14.2056C24.2081 14.2477 24.2169 14.286 24.2269 14.3197C24.2363 14.3529 24.2487 14.3845 24.2577 14.3992C24.2779 14.439 24.321 14.4739 24.3339 14.4806C24.3407 14.4849 24.3386 14.4893 24.3451 14.4916C24.3507 14.4944 24.3622 14.4921 24.3771 14.4788C24.4078 14.4501 24.4343 14.3963 24.4518 14.3322C24.4706 14.2669 24.4873 14.1935 24.5164 14.1287C24.544 14.0644 24.5887 14.0071 24.636 13.9792C24.6823 13.9496 24.7283 13.9403 24.7618 13.9427C24.8306 13.9496 24.8392 13.9862 24.8405 13.9826C24.8405 13.9842 24.8137 13.9762 24.7791 14.0002C24.7619 14.0117 24.7416 14.032 24.7267 14.0604C24.711 14.0894 24.7073 14.1166 24.7055 14.1647C24.7041 14.2105 24.711 14.268 24.7146 14.3444C24.7178 14.42 24.7153 14.5257 24.6612 14.636C24.6339 14.6913 24.5875 14.7527 24.5171 14.7955C24.4486 14.8374 24.3553 14.8578 24.2742 14.8439C24.1099 14.8154 24.0035 14.718 23.9294 14.6002C23.8554 14.4683 23.8477 14.3609 23.8358 14.2674ZM24.1447 9.07625C24.1326 9.0499 24.1221 9.03476 24.1221 9.03476C24.1221 9.03476 24.1419 9.02699 24.1813 9.02859C24.2201 9.03025 24.28 9.04556 24.3401 9.09665C24.3983 9.14682 24.4569 9.23613 24.4575 9.36019C24.459 9.48579 24.3839 9.62219 24.2641 9.69527C24.1457 9.77087 23.9895 9.77636 23.8795 9.71973C23.7701 9.66505 23.7169 9.57442 23.6973 9.50156C23.6778 9.42642 23.6901 9.36688 23.7051 9.33185C23.7129 9.31402 23.7204 9.30179 23.7266 9.29379C23.7326 9.28619 23.7358 9.28207 23.7358 9.28207C23.7358 9.28207 23.7449 9.29705 23.7637 9.31779C23.7819 9.33859 23.8113 9.36379 23.8482 9.38219C23.8849 9.40059 23.9299 9.41122 23.9645 9.40648C23.9967 9.40162 24.025 9.38956 24.0594 9.36945C24.0932 9.34893 24.1192 9.32659 24.1386 9.30082C24.1585 9.27265 24.1703 9.2263 24.1687 9.18402C24.1677 9.14156 24.1567 9.10236 24.1447 9.07625ZM25.6297 11.5509L25.2998 12.856C25.2557 13.0303 25.1463 13.1769 24.9919 13.269C24.8863 13.3321 24.7682 13.3643 24.6483 13.3643C24.5929 13.3643 24.5373 13.3574 24.4821 13.3435C24.3078 13.2994 24.1611 13.1901 24.069 13.0357C23.9769 12.8813 23.9505 12.7002 23.9946 12.526L24.3246 11.2209C24.3687 11.0465 24.4781 10.8998 24.6325 10.8078C24.7867 10.7158 24.9677 10.6894 25.1422 10.7334C25.502 10.8244 25.7207 11.1911 25.6297 11.5509ZM25.7689 8.46802C26.0167 8.46802 26.0163 8.85265 25.7689 8.85265C25.521 8.85259 25.5214 8.46802 25.7689 8.46802ZM25.6789 22.6222C24.7346 22.6222 23.9665 21.8541 23.9665 20.9098C23.9665 19.9656 24.7346 19.1974 25.6789 19.1974C26.6231 19.1974 27.3913 19.9656 27.3913 20.9098C27.3913 21.8541 26.6231 22.6222 25.6789 22.6222ZM28.9419 21.3686C28.6941 21.3686 28.6945 20.984 28.9419 20.984C29.1898 20.984 29.1894 21.3686 28.9419 21.3686ZM30.5021 22.7904C30.4024 22.9213 30.2474 22.9784 30.1039 22.9581C30.0313 22.9468 29.9664 22.9178 29.9143 22.8688C29.8647 22.8216 29.8391 22.7681 29.827 22.7197C29.8028 22.6218 29.8293 22.5409 29.8605 22.4974C29.8755 22.4752 29.8911 22.4613 29.9019 22.4533C29.9128 22.4457 29.9186 22.4416 29.9186 22.4416C29.9186 22.4416 29.9175 22.4489 29.9155 22.4627C29.9139 22.4758 29.913 22.4953 29.9174 22.5172C29.9238 22.5607 29.9561 22.6113 30.0014 22.6382C30.0235 22.6518 30.049 22.6594 30.0689 22.656C30.0862 22.6522 30.1049 22.6441 30.1193 22.6339C30.1487 22.614 30.1777 22.5831 30.1936 22.5606C30.2159 22.5331 30.2453 22.4879 30.2659 22.4294C30.2873 22.3732 30.299 22.3036 30.3053 22.2394C30.3115 22.1751 30.3138 22.1164 30.3165 22.075C30.3198 22.0329 30.3217 22.0089 30.3217 22.0089C30.3217 22.0089 30.3393 22.0205 30.3685 22.0449C30.3976 22.0695 30.439 22.1066 30.4825 22.1646C30.525 22.2226 30.5718 22.3028 30.5902 22.4146C30.6073 22.5222 30.5961 22.6638 30.5021 22.7904ZM31.2106 18.2855C31.1097 18.2966 30.9687 18.3636 30.9015 18.5006C30.867 18.5681 30.8478 18.6488 30.8469 18.7353C30.8447 18.8221 30.8653 18.9074 30.892 19.02C30.9153 19.1309 30.9551 19.2606 30.9274 19.4374C30.9117 19.5256 30.8733 19.6182 30.8026 19.6968C30.732 19.7741 30.6395 19.8261 30.5375 19.8486C30.4367 19.8721 30.3214 19.8599 30.2287 19.8156C30.1358 19.7723 30.0613 19.7041 30.0106 19.6212C29.9585 19.5379 29.9378 19.436 29.9402 19.3561C29.9418 19.2742 29.9579 19.2074 29.9728 19.1497C29.988 19.0926 30.0036 19.0418 30.012 19.0031C30.0206 18.9617 30.024 18.9214 30.0215 18.8868C30.0188 18.8521 30.0115 18.8241 29.9974 18.8022C29.9851 18.7801 29.9594 18.7621 29.919 18.7426C29.881 18.7234 29.8325 18.701 29.7985 18.6636C29.7642 18.628 29.7462 18.5852 29.7395 18.5474C29.7271 18.471 29.745 18.4123 29.7595 18.3666C29.7753 18.3209 29.7921 18.2878 29.8038 18.2655C29.8161 18.2436 29.8225 18.232 29.8225 18.232C29.8225 18.232 29.8217 18.2446 29.8201 18.2686C29.8186 18.2924 29.8171 18.3276 29.8195 18.3703C29.8222 18.4121 29.83 18.4646 29.8523 18.5016C29.8634 18.52 29.8767 18.5314 29.8923 18.5384C29.9063 18.5454 29.9267 18.5488 29.968 18.5565C29.9884 18.5604 30.0132 18.565 30.0425 18.5742C30.0719 18.5832 30.1074 18.6 30.1383 18.6224C30.2016 18.6676 30.2464 18.736 30.2707 18.8026C30.2962 18.8701 30.3058 18.9379 30.3075 19.0056C30.3088 19.076 30.3001 19.1373 30.2948 19.1915C30.2889 19.2464 30.2852 19.2953 30.2889 19.3332C30.2927 19.3724 30.3012 19.3944 30.3155 19.4144C30.3302 19.4354 30.3534 19.4548 30.3774 19.4654C30.402 19.4758 30.4222 19.478 30.4499 19.4738C30.4769 19.4695 30.5041 19.4556 30.5225 19.439C30.5395 19.4248 30.5565 19.398 30.5659 19.3663C30.5878 19.2997 30.5811 19.1889 30.5718 19.0737C30.5675 19.0155 30.5632 18.9545 30.5639 18.8909C30.5641 18.8265 30.5717 18.7602 30.5862 18.6997C30.6145 18.5777 30.6712 18.4685 30.7461 18.387C30.8197 18.3048 30.9154 18.2532 30.9973 18.2326C31.0806 18.2105 31.1557 18.2136 31.214 18.2252C31.2726 18.238 31.3146 18.2587 31.3405 18.2759C31.3666 18.2928 31.3786 18.3035 31.3786 18.3035C31.3786 18.3035 31.363 18.2978 31.3341 18.2912C31.3054 18.2844 31.2619 18.2797 31.2106 18.2855ZM33.1987 21.319C33.1318 21.4858 33.0039 21.6166 32.8385 21.6873C32.7535 21.7237 32.6639 21.7419 32.5741 21.7419C32.4893 21.7419 32.4045 21.7257 32.3234 21.6931C32.1566 21.6262 32.0258 21.4982 31.9551 21.3329L31.4261 20.0951C31.3554 19.9298 31.3533 19.7469 31.4203 19.58C31.4873 19.4132 31.6151 19.2824 31.7805 19.2117C31.9458 19.141 32.1286 19.1389 32.2957 19.2059C32.4625 19.2728 32.5933 19.4008 32.6639 19.5661L33.193 20.8039C33.2636 20.9692 33.2657 21.1521 33.1987 21.319ZM27.49 9.27848C27.6138 9.17813 27.7955 9.19728 27.8957 9.32111L33.3707 16.0821C33.471 16.206 33.4519 16.3876 33.3281 16.4879C33.2746 16.5312 33.2105 16.5522 33.1467 16.5522C33.0627 16.5522 32.9794 16.5157 32.9224 16.4453L27.4474 9.68425C27.347 9.56042 27.3661 9.37876 27.49 9.27848ZM28.3971 13.0513C28.1492 13.0513 28.1496 12.6667 28.3971 12.6667C28.645 12.6667 28.6446 13.0513 28.3971 13.0513ZM26.3678 16.0636C26.2769 15.7913 26.379 15.493 26.6714 15.1769C27.0272 14.792 27.4854 14.6261 27.9974 14.697C28.3296 14.743 28.639 14.8969 28.8921 15.1419L28.9835 15.2305C29.2365 15.4754 29.4002 15.7797 29.4569 16.1105C29.5441 16.6197 29.3929 17.0833 29.0196 17.4513C28.7129 17.7536 28.4185 17.8654 28.143 17.783C27.9845 17.7357 27.8682 17.6318 27.7841 17.5176L27.551 17.7584C27.4943 17.8168 27.419 17.8461 27.3437 17.8461C27.2714 17.8461 27.1991 17.8192 27.143 17.7649L26.4177 17.0625C26.3628 17.0093 26.3311 16.9364 26.3299 16.8599C26.3287 16.7834 26.3579 16.7096 26.4111 16.6546L26.6444 16.4138C26.5277 16.3334 26.4202 16.2205 26.3678 16.0636ZM18.0392 5.19739L20.8966 1.66882C20.9962 1.54733 21.142 1.4783 21.2977 1.4783C21.4534 1.4783 21.5992 1.54733 21.6978 1.66762L25.9031 6.86059C26.0034 6.98442 25.9843 7.16608 25.8605 7.26636C25.8071 7.30962 25.7429 7.33065 25.6791 7.33065C25.5951 7.33065 25.5118 7.29413 25.4548 7.22373L21.2977 2.09025L18.4875 5.56048C18.3873 5.68425 18.2055 5.70333 18.0818 5.6031C17.958 5.50282 17.939 5.32122 18.0392 5.19739ZM18.1246 7.95516C18.3725 7.95516 18.3721 8.33979 18.1246 8.33979C17.8767 8.33979 17.8771 7.95516 18.1246 7.95516ZM17.9298 11.323C18.4278 11.4597 18.7837 11.7932 18.9588 12.2873C19.1027 12.6932 19.0787 13.0076 18.8879 13.2218C18.7778 13.3453 18.6343 13.4067 18.4953 13.4344L18.6146 13.7477C18.6418 13.8192 18.6395 13.8986 18.6082 13.9684C18.5769 14.0381 18.5191 14.0926 18.4476 14.1198L17.5039 14.479C17.4702 14.4918 17.4355 14.498 17.4014 14.498C17.2852 14.498 17.1756 14.4272 17.1318 14.312L17.0125 13.9987C16.8902 14.0704 16.7422 14.1201 16.5779 14.1009C16.2929 14.0679 16.0661 13.8489 15.9036 13.4501C15.7058 12.9646 15.7498 12.479 16.031 12.0457C16.2135 11.7641 16.4841 11.5492 16.8131 11.4239L16.9322 11.3786C17.2611 11.2534 17.6061 11.2342 17.9298 11.323ZM17.2953 9.40539C17.2877 9.44733 17.2737 9.50785 17.2463 9.57996C17.2187 9.65179 17.1777 9.7355 17.1171 9.81979C17.0856 9.86305 17.0553 9.90179 17.0092 9.9475C16.9609 9.99156 16.9005 10.0457 16.7878 10.0703C16.7319 10.0819 16.6657 10.078 16.6061 10.055C16.5462 10.0316 16.498 9.99162 16.4665 9.95025C16.4031 9.86585 16.386 9.77927 16.3901 9.69527C16.4069 9.54025 16.477 9.46219 16.5167 9.40436C16.56 9.34825 16.5894 9.30899 16.6061 9.27796C16.6229 9.2475 16.6286 9.22762 16.6286 9.22762C16.6286 9.22762 16.6472 9.2423 16.666 9.2835C16.6853 9.32396 16.6973 9.39459 16.6955 9.47516C16.6945 9.55368 16.6901 9.64459 16.7147 9.68882C16.7155 9.69008 16.7167 9.69116 16.7177 9.69242C16.7199 9.69202 16.7228 9.69122 16.727 9.68973C16.7373 9.6859 16.7515 9.67905 16.7671 9.67019C16.8052 9.64636 16.8419 9.62333 16.8771 9.60133C16.9551 9.55362 17.0259 9.5103 17.0861 9.47339C17.2185 9.39236 17.3042 9.33985 17.3042 9.33985C17.3042 9.33985 17.3029 9.36345 17.2953 9.40539ZM11.3799 13.4207L16.6921 6.86088C16.7922 6.73705 16.9738 6.7179 17.0978 6.81825C17.2216 6.91853 17.2406 7.10019 17.1404 7.22402L11.8283 13.7838C11.7713 13.8542 11.6879 13.8908 11.6039 13.8908C11.5401 13.8908 11.4759 13.8697 11.4225 13.8265C11.2988 13.7262 11.2797 13.5445 11.3799 13.4207ZM9.39258 20.8896C9.48246 20.7338 9.6276 20.6225 9.80126 20.576C9.97486 20.5294 10.1563 20.5534 10.312 20.6432L11.4778 21.3163C11.7991 21.5018 11.9097 21.9143 11.7242 22.2357C11.7242 22.2358 11.7242 22.2358 11.7242 22.2358C11.5997 22.4515 11.3729 22.5722 11.1402 22.5722C11.0261 22.5722 10.9105 22.5432 10.8047 22.4821L9.63892 21.809C9.4832 21.7192 9.37189 21.574 9.32532 21.4004C9.2788 21.2267 9.30263 21.0453 9.39258 20.8896Z" fill="#F5CD00"/>
<path d="M32.2218 19.755C32.2016 19.7077 32.1642 19.6712 32.1165 19.6521C32.0934 19.6428 32.0692 19.6382 32.045 19.6382C32.0193 19.6382 31.9937 19.6434 31.9694 19.6538C31.9221 19.674 31.8856 19.7113 31.8665 19.759C31.8473 19.8067 31.8479 19.8589 31.8682 19.9061L32.3972 21.144C32.4174 21.1913 32.4547 21.2278 32.5025 21.2469C32.5499 21.266 32.6023 21.2654 32.6496 21.2452C32.6969 21.225 32.7334 21.1877 32.7525 21.14C32.7717 21.0924 32.771 21.0401 32.7508 20.9929L32.2218 19.755Z" fill="#48A146"/>
<path d="M27.1952 16.0294C27.3 16.0485 27.3857 16.1237 27.4183 16.2251C27.4508 16.3264 27.4248 16.4375 27.3508 16.5139L27.0265 16.8488L27.3373 17.1499L27.6616 16.8149C27.7168 16.758 27.7919 16.7272 27.8689 16.7272C27.8954 16.7272 27.922 16.7308 27.9483 16.7383C28.0506 16.7676 28.1286 16.8509 28.1509 16.9549C28.176 17.0653 28.2521 17.2139 28.3086 17.2304C28.3332 17.2377 28.4355 17.2172 28.6147 17.0405C28.851 16.8075 28.943 16.5274 28.8884 16.208C28.8525 15.9988 28.7467 15.8041 28.5824 15.645C28.5824 15.6449 28.5824 15.6449 28.5824 15.6449L28.4909 15.5564C28.3265 15.3972 28.1284 15.2976 27.9184 15.2685C27.5974 15.2243 27.3204 15.325 27.0952 15.5687C26.9238 15.754 26.9071 15.8569 26.9152 15.8809C26.9348 15.9401 27.0987 16.0119 27.1952 16.0294Z" fill="#EFD2C0"/>
<path d="M9.8213 7.23476H7.68799V8.27407H9.8213V7.23476Z" fill="#B25420"/>
<path d="M10.2328 12.546L11.0744 11.5067H9.42505V12.546H10.2328Z" fill="#B25420"/>
<path d="M12.2278 10.0827H7.68799V11.122H11.386L12.2278 10.0827Z" fill="#D52C20"/>
<path d="M9.0405 11.5067H7.68799V12.546H9.0405V11.5067Z" fill="#D52C20"/>
<path d="M11.3364 8.65872H7.68799V9.69804H11.3364V8.65872Z" fill="#B25420"/>
<path d="M13.2207 5.81076H7.68799V6.85013H13.2207V5.81076Z" fill="#D52C20"/>
<path d="M7.68799 14.3545V15.6886L8.76833 14.3545H7.68799Z" fill="#D52C20"/>
<path d="M9.92147 12.9306H7.68799V13.9699H9.07982L9.92147 12.9306Z" fill="#B25420"/>
<path d="M36.8265 47.186H5.7688H1.92263H0.816856C0.790342 47.186 0.768799 47.2076 0.768799 47.234V48.1956C0.768799 48.222 0.790342 48.2436 0.816856 48.2436H41.7785C41.8049 48.2436 41.8265 48.222 41.8265 48.1956V47.234C41.8265 47.2076 41.8049 47.186 41.7785 47.186H40.6727H36.8265Z" fill="#EFD2C0"/>
<path d="M21.2976 5.90688C20.6715 5.90688 20.1621 6.4163 20.1621 7.04242C20.1621 7.66853 20.6715 8.1779 21.2976 8.1779C21.9237 8.1779 22.4331 7.66853 22.4331 7.04242C22.4331 6.4163 21.9237 5.90688 21.2976 5.90688Z" fill="#E53722"/>
<path d="M13.2208 7.23476H10.2061V8.27407H13.2208V7.23476Z" fill="#D52C20"/>
<path d="M18.6746 20.2196L18.5563 20.1722C18.344 20.0872 18.123 20.07 17.9174 20.1226C17.6035 20.203 17.3854 20.4013 17.2692 20.7121C17.1808 20.9485 17.2043 21.0501 17.2208 21.0693C17.2617 21.1166 17.4405 21.1211 17.5365 21.1007C17.6409 21.0788 17.7485 21.1158 17.8169 21.1973C17.8855 21.2788 17.9035 21.3914 17.8639 21.4902L17.6906 21.9229L18.0923 22.0838L18.2656 21.6511C18.3052 21.5523 18.396 21.4833 18.5018 21.4717C18.6082 21.4596 18.7112 21.5076 18.7714 21.5954C18.8364 21.688 18.9604 21.7948 19.0216 21.7906C19.0468 21.788 19.134 21.7305 19.233 21.4989C19.3635 21.1938 19.3427 20.8997 19.1711 20.6248C19.0587 20.4448 18.887 20.3047 18.6746 20.2196Z" fill="#EFD2C0"/>
<path d="M12.5393 9.69804L13.2208 8.85649V8.65872H11.7212V9.69804H12.5393Z" fill="#B25420"/>
<path d="M36.8265 30.2629H5.7688V46.4168H36.8265V30.2629Z" fill="#F49600"/>
<path d="M39.9037 31.9177H37.5959V34.1789H39.9037V31.9177Z" fill="#B25420"/>
<path d="M37.5959 36.8246H39.9037V34.5634H37.5959V36.8246ZM39.3507 36.5129C39.1648 36.5129 39.1651 36.2244 39.3507 36.2244C39.5366 36.2244 39.5364 36.5129 39.3507 36.5129ZM39.3026 35.6956C39.4886 35.6956 39.4882 35.9841 39.3026 35.9841C39.1167 35.9841 39.117 35.6956 39.3026 35.6956ZM38.7498 35.9841C38.9357 35.9841 38.9354 36.2725 38.7498 36.2725C38.5638 36.2725 38.5642 35.9841 38.7498 35.9841Z" fill="#D52C20"/>
<path d="M39.9034 30.2629H37.5957V31.5331H39.9034V30.2629ZM38.2047 31.0481C38.0188 31.0481 38.0191 30.7597 38.2047 30.7597C38.3906 30.7597 38.3903 31.0481 38.2047 31.0481Z" fill="#D52C20"/>
<path d="M39.9037 37.2092H37.5959V39.4704H39.9037V37.2092Z" fill="#D52C20"/>
<path d="M4.99961 42.5008H2.69189V44.762H4.99961V42.5008Z" fill="#B25420"/>
<path d="M39.9037 39.8551H37.5959V42.1162H39.9037V39.8551Z" fill="#B25420"/>
<path d="M2.69189 39.4704H4.99961V37.2092H2.69189V39.4704ZM4.58292 39.1571C4.39698 39.1571 4.39732 38.8687 4.58292 38.8687C4.76881 38.8687 4.76852 39.1571 4.58292 39.1571ZM4.35852 38.3559C4.54447 38.3559 4.54412 38.6443 4.35852 38.6443C4.17264 38.6443 4.17292 38.3559 4.35852 38.3559ZM4.03801 38.7405C4.22395 38.7405 4.22361 39.0289 4.03801 39.0289C3.85212 39.0289 3.85241 38.7405 4.03801 38.7405Z" fill="#B25420"/>
<path d="M13.0581 16.5521C12.432 16.5521 11.9226 17.0615 11.9226 17.6876C11.9226 18.3137 12.432 18.8232 13.0581 18.8232C13.6842 18.8232 14.1936 18.3137 14.1936 17.6876C14.1936 17.0615 13.6843 16.5521 13.0581 16.5521Z" fill="#E53722"/>
<path d="M4.99961 45.1467H2.69189V46.4168H4.99961V45.1467Z" fill="#D52C20"/>
<path d="M4.99961 39.8551H2.69189V42.1162H4.99961V39.8551Z" fill="#D52C20"/>
<path d="M4.99961 34.5635H2.69189V36.8247H4.99961V34.5635Z" fill="#D52C20"/>
<path d="M4.99961 30.2629H2.69189V31.5331H4.99961V30.2629Z" fill="#B25420"/>
<path d="M41.1534 24.3975H1.44188C1.07074 24.3975 0.768799 24.6994 0.768799 25.0705V27.8911H16.0707C16.23 27.8911 16.3591 28.0202 16.3591 28.1796C16.3591 28.3389 16.23 28.468 16.0707 28.468H0.768799V28.8205C0.768799 29.1916 1.07074 29.4936 1.44188 29.4936H1.92268H5.76886H36.8266H40.6727H41.1535C41.5246 29.4936 41.8266 29.1916 41.8266 28.8205V28.468H21.2977C21.1383 28.468 21.0092 28.3389 21.0092 28.1796C21.0092 28.0202 21.1383 27.8911 21.2977 27.8911H41.8265V25.0705C41.8265 24.6994 41.5245 24.3975 41.1534 24.3975ZM18.7628 28.468H17.8842C17.7249 28.468 17.5957 28.3389 17.5957 28.1796C17.5957 28.0202 17.7249 27.8911 17.8842 27.8911H18.7628C18.9221 27.8911 19.0513 28.0202 19.0513 28.1796C19.0513 28.3389 18.9221 28.468 18.7628 28.468Z" fill="#F2C673"/>
<path d="M2.69189 34.1789H4.99961V31.9177H2.69189V34.1789ZM3.23675 33.452C3.42269 33.452 3.42235 33.7405 3.23675 33.7405C3.05081 33.7405 3.05115 33.452 3.23675 33.452Z" fill="#D52C20"/>
<path d="M39.9037 45.1467H37.5959V46.4168H39.9037V45.1467Z" fill="#B25420"/>
<path d="M37.5959 44.762H39.9037V42.5008H37.5959V44.762ZM38.0767 44.1812C38.2626 44.1812 38.2623 44.4696 38.0767 44.4696C37.8908 44.4696 37.8911 44.1812 38.0767 44.1812Z" fill="#D52C20"/>
<path d="M9.625 21.5955C9.72534 22.0105 9.97226 22.3887 10.312 22.6474C10.4744 22.7712 10.6613 22.8695 10.8635 22.899C11.0656 22.9285 11.2841 22.8828 11.4378 22.7483C11.5915 22.6137 11.6659 22.3844 11.592 22.1941C11.5022 22.2956 11.3715 22.3599 11.2362 22.369C10.9815 22.3861 10.7544 22.2191 10.5605 22.0529C10.3666 21.8868 10.1607 21.704 9.9066 21.6792" fill="#F49600"/>
<path d="M0.497803 28.1796H42.0788C42.0788 28.1796 42.4788 29.916 40.974 29.916C39.4693 29.916 4.99974 29.916 4.99974 29.916H2.01209C2.01209 29.916 0.497803 30.2813 0.497803 28.1796Z" fill="#D59750"/>
<path d="M37.1833 30.2629H5.41187V30.904H37.1833V30.2629Z" fill="#F47700"/>
<path d="M36.8265 38.5065H5.7688V47.186H36.8265V38.5065Z" fill="#F47700"/>
<path d="M0.497803 24.9065H41.9835C41.9835 24.9065 41.8692 24.1922 40.6978 24.1922C39.5264 24.1922 1.6978 24.1922 1.6978 24.1922C1.6978 24.1922 0.697803 24.2967 0.497803 24.9065Z" fill="white"/>
<path opacity="0.6" d="M3.09739 29.9403H2.34521V46.7732H3.09739V29.9403Z" fill="#F5CD00"/>
<path opacity="0.4" d="M5.20249 29.916H4.03809V46.7732H5.20249V29.916Z" fill="#422834"/>
<path opacity="0.6" d="M39.4978 46.7731L40.25 46.7731L40.25 29.9403L39.4978 29.9403L39.4978 46.7731Z" fill="#F5CD00"/>
<path opacity="0.4" d="M37.393 46.7731L38.5574 46.7731L38.5574 29.916L37.393 29.916L37.393 46.7731Z" fill="#422834"/>
<path d="M0.516602 47.935H42.269C42.269 47.935 41.9833 48.6208 41.3547 48.6208C40.7261 48.6208 0.768715 48.6208 0.768715 48.6208" fill="#F49600"/>
<path d="M22.6121 1.02077C22.3835 0.677908 21.2978 0.277908 21.2978 0.277908C21.2978 0.277908 20.2121 0.677908 19.9835 1.02077C19.755 1.36362 1.61206 23.9636 1.61206 23.9636H3.18349L21.2978 1.76362L39.4121 23.9636H40.9835C40.9836 23.9636 22.8407 1.36362 22.6121 1.02077Z" fill="#F49600"/>
<path opacity="0.6" d="M8.22812 3.80174V15.6299L7.50709 16.1108V4.23979C7.50715 4.23979 7.38726 3.61122 8.22812 3.80174Z" fill="#F5CD00"/>
<path opacity="0.4" d="M10.7898 3.62077V12.4424L13.7323 8.8526V4.27792C13.7323 4.27792 12.196 3.50649 10.7898 3.62077Z" fill="#422834"/>
<path d="M11.5779 18.3945C11.5546 18.8188 11.699 19.2556 11.9926 19.5626C12.2863 19.8697 12.7304 20.0348 13.1498 19.9656C13.5691 19.8964 13.9456 19.5832 14.0639 19.175C14.0887 19.0895 14.0943 18.9794 14.0203 18.9298C13.9359 18.8733 13.8275 18.9415 13.7398 18.9926C13.4363 19.1693 13.047 19.1394 12.7244 19.0006C12.4018 18.8618 12.1315 18.6273 11.8669 18.3964" fill="#F49600"/>
<path d="M17.4487 22.5221C17.5215 22.728 17.6378 22.9374 17.8369 23.0269C18.05 23.1228 18.3031 23.0552 18.5062 22.9396C18.7093 22.824 18.8845 22.6633 19.0912 22.5544C19.2132 22.4901 19.3479 22.4426 19.4465 22.3463C19.5452 22.2499 19.5938 22.0816 19.507 21.9744C19.2459 22.0831 18.9535 22.1929 18.6883 22.0948C18.5842 22.0563 18.4786 21.9859 18.3718 22.016C18.2573 22.0483 18.2009 22.1816 18.0944 22.2345C17.9465 22.3078 17.7664 22.1941 17.686 22.05C17.6056 21.9057 17.3888 21.0197 17.0552 21.463C16.9337 21.6243 17.1141 21.7634 17.1992 21.8973C17.3224 22.0912 17.3729 22.3078 17.4487 22.5221Z" fill="#F49600"/>
<path d="M24.2297 21.5759C24.2632 22.0431 24.5115 22.4956 24.9016 22.7547C25.2918 23.0139 25.8181 23.0648 26.2411 22.8638C26.6641 22.6627 26.9606 22.2083 26.9513 21.7399C26.6105 21.9943 26.2275 22.2117 25.8064 22.2709C25.3853 22.3301 24.9205 22.2064 24.6514 21.8772" fill="#F49600"/>
<path d="M21.0508 16.9409C21.0583 17.2942 21.0685 17.6598 21.2201 17.979C21.3716 18.2983 21.7056 18.5596 22.0556 18.5107C22.2743 18.4802 22.4712 18.3253 22.5526 18.1201C22.6339 17.9148 22.5964 17.667 22.458 17.495C22.3911 17.7242 22.1558 17.8922 21.9173 17.881C21.6788 17.8697 21.4603 17.6804 21.4154 17.4459" fill="#F49600"/>
<path d="M26.5198 16.9017C26.3455 17.1172 26.3731 17.4433 26.5108 17.6837C26.6486 17.9242 26.8751 18.0986 27.0956 18.2664C27.1771 18.3284 27.262 18.392 27.3619 18.4143C27.4618 18.4366 27.5814 18.4057 27.6305 18.3158C27.6609 18.2603 27.6611 18.1901 27.6996 18.14C27.7467 18.0788 27.8358 18.0676 27.9116 18.082C27.9874 18.0964 28.0586 18.1307 28.1349 18.1422C28.3089 18.1683 28.4846 18.0669 28.5851 17.9225C28.6856 17.7781 28.7216 17.5979 28.7303 17.4222C28.4988 17.5229 28.2204 17.5084 28.0007 17.3841C27.8983 17.3262 27.8012 17.2438 27.6838 17.2381C27.5686 17.2325 27.4648 17.3026 27.3535 17.3325C27.1375 17.3907 26.8881 17.2764 26.7911 17.0749" fill="#F49600"/>
<path d="M31.7344 20.5235C31.8288 20.7456 31.8603 20.9883 31.9074 21.225C31.9546 21.4617 32.0222 21.7028 32.1743 21.8903C32.3263 22.0777 32.5817 22.1992 32.8133 22.1311C33.0115 22.0728 33.1526 21.8891 33.2154 21.6923C33.2782 21.4956 33.2755 21.2848 33.2722 21.0783C33.1725 21.0536 33.0682 21.0972 32.9828 21.1542C32.8974 21.2113 32.8211 21.2832 32.7278 21.3263C32.481 21.4407 32.1494 21.2909 32.0721 21.03" fill="#F49600"/>
<path d="M24.3687 13.0215C24.5669 13.197 24.8029 13.3294 25.056 13.4072C25.1254 13.4285 25.2004 13.4457 25.2696 13.4238C25.3875 13.3865 25.4426 13.2548 25.4831 13.138C25.6091 12.7746 25.7367 12.3885 25.6549 12.0127C25.6419 11.9525 25.6223 11.8913 25.5805 11.846C25.5388 11.8006 25.47 11.7754 25.4135 11.8001C25.3534 11.8264 25.3273 11.8958 25.3072 11.9583C25.2024 12.2848 25.0976 12.6114 24.9929 12.9379" fill="#F49600"/>
<path d="M22.7999 7.34088C22.9794 7.73665 22.8594 8.229 22.5654 8.54905C22.2714 8.86911 21.8314 9.02905 21.3974 9.04951C21.1187 9.06265 20.8283 9.01922 20.5946 8.86682C20.3609 8.71442 20.1962 8.43757 20.2319 8.16088C20.6099 8.40111 21.081 8.49042 21.5207 8.40528C21.9604 8.32014 22.3641 8.0614 22.6251 7.69745" fill="#F49600"/>
<path d="M16.3069 13.7106C16.236 13.863 16.2579 14.0544 16.3615 14.1868C16.4651 14.3192 16.6456 14.3864 16.8106 14.3542C16.765 14.5997 16.9318 14.8538 17.1612 14.9529C17.3904 15.052 17.6621 15.0145 17.8844 14.9006C18.1066 14.7867 18.286 14.6039 18.4432 14.4098C18.5361 14.2952 18.6245 14.1302 18.538 14.0105C18.4662 13.9112 18.3132 13.9134 18.2025 13.9661C18.0918 14.0187 18.0023 14.1085 17.892 14.1621C17.6499 14.2797 17.3249 14.1803 17.19 13.9474C17.1316 13.8465 17.0967 13.7172 16.9908 13.6682C16.9153 13.6332 16.8234 13.653 16.7533 13.698C16.6832 13.7428 16.6304 13.8095 16.5788 13.8749" fill="#F49600"/>
<path d="M13.4334 13.726C13.3398 13.6207 13.1512 13.6568 13.0666 13.7694C12.9819 13.882 12.9815 14.0383 13.0166 14.1747C13.0518 14.3111 13.1178 14.4378 13.156 14.5734C13.2206 14.8026 13.215 15.0729 13.3875 15.2369C13.5031 15.3467 13.6868 15.3777 13.832 15.3118C13.9772 15.246 14.0748 15.0874 14.0682 14.9281C14.0583 14.687 13.8366 14.4608 13.9194 14.2341C13.9443 14.1661 13.9947 14.1096 14.019 14.0413C14.0575 13.9333 14.0197 13.8026 13.9294 13.732C13.8392 13.6613 13.7033 13.6559 13.6077 13.7193" fill="#F49600"/>
<path d="M21.4941 12.1555C21.3706 11.9982 21.2104 11.8541 21.0134 11.8197C20.8165 11.7854 20.5847 11.9007 20.551 12.0978C20.5227 12.2636 20.6334 12.4181 20.6714 12.582C20.7393 12.8741 20.5738 13.1632 20.4306 13.4268C20.2874 13.6903 20.1602 14.013 20.2979 14.2795C20.3715 14.4218 20.5185 14.5236 20.6775 14.5426C20.8366 14.5616 21.0034 14.4971 21.1084 14.3761C21.2375 14.2272 21.2742 14.006 21.4293 13.8845C21.6355 13.7231 21.9699 13.8021 22.1565 13.6184C22.2906 13.4864 22.2899 13.2613 22.2059 13.0929C22.1206 12.9216 21.9616 12.8196 21.851 12.6696C21.7277 12.5027 21.6231 12.3199 21.4941 12.1555Z" fill="#F49600"/>
<path d="M19.7242 10.9293C19.655 10.8356 19.567 10.7321 19.4505 10.7354C19.3381 10.7386 19.2514 10.8496 19.2406 10.9614C19.2298 11.0733 19.277 11.1826 19.3334 11.2798C19.3892 11.376 19.4573 11.4686 19.5511 11.5284C19.6448 11.5881 19.7685 11.61 19.8686 11.5616C20.1876 11.4074 19.8384 11.0841 19.7242 10.9293Z" fill="#F49600"/>
<path d="M23.4372 9.78482C23.2589 9.84653 23.1305 10.0078 23.057 10.1815C23.0127 10.2862 22.9844 10.4003 22.9964 10.5133C23.0084 10.6264 23.065 10.7381 23.1612 10.7986C23.2574 10.8591 23.3941 10.8579 23.4782 10.7814C23.6126 10.6592 23.5662 10.4206 23.6909 10.2883C23.7439 10.232 23.8197 10.2045 23.8847 10.1626C24.2395 9.9343 23.6527 9.71025 23.4372 9.78482Z" fill="#F49600"/>
<path d="M27.3326 12.1525C27.1824 12.2737 27.1546 12.4889 27.1494 12.6819C27.1442 12.8748 27.1452 13.0843 27.0273 13.2371C26.9585 13.3263 26.8575 13.3839 26.7732 13.4587C26.6891 13.5336 26.6175 13.6421 26.6403 13.7524C26.6663 13.8784 26.8089 13.9515 26.9374 13.9456C27.0659 13.9396 27.1834 13.8754 27.2972 13.8155C27.4111 13.7556 27.5331 13.697 27.6616 13.7038C27.7947 13.7109 27.9124 13.7865 28.0325 13.8443C28.1525 13.902 28.298 13.9423 28.4155 13.8796C28.538 13.8143 28.5847 13.6559 28.5651 13.5185C28.5363 13.3155 28.4025 13.1463 28.3369 12.9553C28.2931 12.8272 28.2859 12.6879 28.2353 12.5624C28.111 12.2535 27.6569 11.8908 27.3326 12.1525Z" fill="#F49600"/>
<path d="M25.196 17.6114C25.1573 17.4442 25.1056 17.2739 24.9946 17.143C24.8836 17.0121 24.6996 16.9297 24.5365 16.9831C24.3172 17.0549 24.2334 17.3229 24.2299 17.5537C24.2264 17.7845 24.268 18.0278 24.1711 18.2373C24.0935 18.405 23.9382 18.5236 23.8399 18.6801C23.7416 18.8366 23.7257 19.0816 23.8861 19.1733C24.0297 19.2553 24.2136 19.1561 24.3164 19.0266C24.4504 18.8576 24.5239 18.628 24.7128 18.524C24.826 18.4616 24.9611 18.457 25.0852 18.4206C25.5034 18.2977 25.2637 17.9046 25.196 17.6114Z" fill="#F49600"/>
<path d="M31.8682 16.2334C31.782 16.1078 31.5999 16.0325 31.473 16.1168C31.3726 16.1836 31.3455 16.3195 31.3494 16.44C31.3532 16.5605 31.3787 16.6835 31.348 16.8001C31.2844 17.0416 31.0038 17.1774 30.9395 17.4188C30.9073 17.5395 30.9385 17.6753 31.0202 17.7698C31.1018 17.8644 31.2315 17.915 31.3557 17.9009C31.5492 17.8788 31.711 17.7135 31.9057 17.719C32.0983 17.7245 32.2674 17.8982 32.4574 17.8659C32.6422 17.8345 32.7415 17.5998 32.675 17.4246C32.5742 17.1592 32.3096 17.1972 32.1338 17.039C31.9207 16.8474 32.0269 16.4645 31.8682 16.2334Z" fill="#F49600"/>
<path d="M32.9903 18.4395C32.9795 18.4915 32.9901 18.5455 33.0024 18.5972C33.028 18.7059 33.0611 18.8141 33.1173 18.9107C33.1481 18.9637 33.1919 19.0167 33.2525 19.0263C33.3015 19.034 33.352 19.0099 33.3841 18.9721C33.4163 18.9344 33.4319 18.8849 33.4369 18.8356C33.4509 18.6997 33.3763 18.56 33.2933 18.456C33.216 18.3589 33.0313 18.2433 32.9903 18.4395Z" fill="#F49600"/>
<path d="M35.6833 21.4798C35.511 21.4441 35.321 21.4581 35.1754 21.5568C35.0298 21.6555 34.9441 21.8512 35.0059 22.0158C35.0431 22.1147 35.1263 22.1927 35.1542 22.2945C35.2111 22.5022 35.0199 22.7228 35.0886 22.927C35.1337 23.0613 35.2769 23.1364 35.4141 23.1716C35.585 23.2153 35.786 23.2106 35.9138 23.089C36.0508 22.9588 36.0567 22.7445 36.037 22.5565C36.0172 22.3685 35.9834 22.1677 36.0683 21.9989C36.1258 21.8848 36.2621 21.7581 36.1368 21.6585C36.0228 21.568 35.8237 21.509 35.6833 21.4798Z" fill="#F49600"/>
<path d="M31.508 23.7304C31.5524 23.4866 31.5969 23.2376 31.5624 22.9922C31.5279 22.7468 31.4 22.5009 31.1791 22.3884C30.9263 22.2595 30.5843 22.3154 30.3852 22.1132C30.2675 21.9937 30.2079 21.7918 30.0428 21.7619C29.934 21.7422 29.8255 21.8162 29.7699 21.9119C29.7144 22.0076 29.7004 22.121 29.6877 22.2308C29.6431 22.6158 29.5806 23.0403 29.2838 23.2894C29.199 23.3607 29.0993 23.4127 29.0145 23.484C28.9297 23.5554 28.8576 23.6544 28.8582 23.7652" fill="#F49600"/>
<path d="M12.4839 23.9349C12.5435 23.5845 12.635 23.1873 12.9467 23.0167C13.1561 22.902 13.4146 22.9227 13.6363 22.8341C13.8107 22.7644 13.9563 22.6255 14.0342 22.4545C14.0719 22.3719 14.0947 22.2814 14.1467 22.2069C14.1987 22.1324 14.2932 22.0759 14.3794 22.1047C14.4581 22.1309 14.5001 22.2159 14.5226 22.2957C14.5666 22.4516 14.5684 22.616 14.5934 22.776C14.6183 22.9361 14.6722 23.1012 14.7947 23.2072C14.9076 23.3049 15.0614 23.3381 15.1924 23.4097C15.3234 23.4813 15.4412 23.6288 15.391 23.7695" fill="#F49600"/>
<path d="M6.90036 19.6736C7.11996 19.7864 7.18024 20.0724 7.17413 20.3192C7.16796 20.566 7.12345 20.8263 7.22767 21.0501C7.31139 21.2298 7.47767 21.3546 7.60333 21.508C7.7479 21.6844 7.84116 21.9187 7.79219 22.1415C7.74322 22.3643 7.51899 22.5525 7.29522 22.5083C7.12316 22.4743 6.98659 22.3199 6.81133 22.3125C6.64522 22.3054 6.50807 22.4308 6.36573 22.5166C6.12116 22.6642 5.81384 22.7037 5.53996 22.6225C5.26607 22.5413 5.0299 22.3408 4.90527 22.0837C5.43076 21.4629 5.90664 20.8001 6.32699 20.1038" fill="#F49600"/>
<path d="M16.3182 16.3912C16.3762 16.4468 16.4613 16.461 16.5408 16.4728C16.5929 16.4805 16.6524 16.4862 16.6922 16.4517C16.7365 16.4134 16.7334 16.3402 16.7013 16.2912C16.6693 16.2421 16.6162 16.2117 16.5649 16.1834C16.4964 16.1455 16.4642 16.1047 16.4119 16.052C16.3727 16.0125 16.3515 15.9886 16.2969 16.0328C16.2024 16.1093 16.2409 16.3172 16.3182 16.3912Z" fill="white"/>
<path d="M16.1713 15.4344C16.1599 15.4238 16.1472 15.4136 16.1319 15.4107C16.1105 15.4066 16.088 15.4185 16.0757 15.4365C16.0633 15.4546 16.06 15.4776 16.0621 15.4993C16.0659 15.5382 16.0857 15.5735 16.105 15.6075C16.1339 15.6585 16.163 15.7096 16.1919 15.7606C16.1986 15.7723 16.2058 15.7847 16.2176 15.7913C16.2431 15.8057 16.277 15.7842 16.2863 15.7564C16.2964 15.7261 16.2853 15.6962 16.2811 15.6662C16.2771 15.6365 16.2738 15.6082 16.2642 15.5795C16.2458 15.5245 16.2138 15.4739 16.1713 15.4344Z" fill="white"/>
<path d="M24.6878 16.6045C24.6397 16.6953 24.5902 16.7913 24.5931 16.894C24.5961 16.9967 24.6722 17.105 24.7749 17.1046C24.8661 17.1042 24.9359 17.0231 24.9778 16.942C25.0264 16.8478 25.0555 16.7363 25.0221 16.6357C24.9886 16.5352 24.8753 16.4575 24.7751 16.4922" fill="white"/>
<path d="M31.6217 18.9847C31.6645 18.9109 31.7533 18.7191 31.6824 18.6399C31.6286 18.5798 31.5452 18.6365 31.4993 18.6791C31.4275 18.7457 31.3813 18.8413 31.3957 18.9402C31.4166 19.0835 31.5459 19.1153 31.6217 18.9847Z" fill="white"/>
<path d="M31.3774 16.4069C31.4496 16.4107 31.5156 16.4735 31.5175 16.5458C31.5194 16.618 31.4516 16.686 31.3797 16.6794C31.3216 16.674 31.2171 16.5919 31.2154 16.5276C31.2135 16.4557 31.3165 16.4037 31.3774 16.4069Z" fill="white"/>
<path d="M25.3006 8.23117C25.317 8.27603 25.3299 8.3302 25.3011 8.36831C25.2787 8.39791 25.2369 8.40717 25.2005 8.39986C25.1642 8.39249 25.1323 8.37134 25.1026 8.34923C24.8923 8.19288 24.7382 7.9626 24.6739 7.7086C24.6052 7.43706 24.9148 7.59357 24.9986 7.70523C25.1166 7.86248 25.2329 8.04666 25.3006 8.23117Z" fill="white"/>
<path d="M41.3493 23.6431L22.7726 0.703373C22.4106 0.256344 21.8732 0 21.298 0C20.7229 0 20.1854 0.256344 19.8235 0.703373L13.9903 7.90651V4.63789C13.9903 3.92211 13.408 3.33983 12.6923 3.33983H8.21726C7.50149 3.33983 6.9192 3.92217 6.9192 4.63789V16.6385L1.24686 23.6431C0.543886 23.739 0 24.3418 0 25.0706V28.8206C0 29.6159 0.647028 30.2629 1.44229 30.2629H1.92309V46.4167H0.817315C0.366629 46.4167 0 46.7834 0 47.2341V48.1956C0 48.6462 0.366629 49.0129 0.817315 49.0129H41.7789C42.2295 49.0129 42.5962 48.6462 42.5962 48.1956V47.2341C42.5962 46.7834 42.2295 46.4167 41.7789 46.4167H40.6731V30.2629H41.1539C41.9493 30.2629 42.5962 29.6159 42.5962 28.8206V25.0706C42.5962 24.3417 42.0522 23.739 41.3493 23.6431ZM12.3557 4.10903H12.6922C12.9838 4.10903 13.2211 4.34629 13.2211 4.63789V5.42611H12.3557V4.10903ZM9.6088 4.10903H11.9711V5.42611H9.6088V4.10903ZM7.6884 4.63789C7.6884 4.34629 7.92566 4.10903 8.21726 4.10903H9.22417V5.42611H7.6884V4.63789ZM7.6884 5.81074H13.2211V6.85011H7.6884V5.81074ZM10.2063 8.27406V7.23474H13.2211V8.27406H10.2063ZM13.2211 8.65869V8.85646L12.5397 9.698H11.7215V8.65869H13.2211ZM7.6884 7.23474H9.82171V8.27406H7.6884V7.23474ZM7.6884 8.65869H11.3369V9.698H7.6884V8.65869V8.65869ZM7.6884 10.0826H12.2281L11.3864 11.122H7.68834V10.0826H7.6884ZM11.075 11.5066L10.2333 12.5459H9.42554V11.5066H11.075ZM7.6884 11.5066H9.04091V12.5459H7.6884V11.5066ZM7.6884 12.9306H9.92183L9.08017 13.9699H7.6884V12.9306ZM7.6884 14.3545H8.76874L7.6884 15.6886V14.3545ZM9.21794 15.0221C9.26966 15.0831 9.32263 15.143 9.37737 15.2013C9.37737 15.2013 9.4816 15.3153 9.64366 15.4275C9.8044 15.5409 10.025 15.6464 10.2221 15.6505C10.1567 15.4646 10.0226 15.2839 9.9112 15.1401C9.79903 14.9976 9.7052 14.8949 9.7052 14.8949C9.63594 14.8211 9.57046 14.7441 9.50646 14.6658L20.4213 1.18743C20.6365 0.921714 20.9561 0.769257 21.298 0.769257C21.6401 0.769257 21.9596 0.921714 22.1748 1.18743L27.415 7.65834C27.4055 7.66811 27.3966 7.67834 27.387 7.688C27.387 7.688 27.299 7.77937 27.1965 7.9096C27.0946 8.04086 26.9747 8.20891 26.9219 8.3864C27.1071 8.39023 27.3107 8.29943 27.4598 8.20086C27.5869 8.11817 27.6753 8.034 27.6996 8.00989L34.3978 16.2812C34.3222 16.371 34.2451 16.4595 34.1643 16.5446C34.1643 16.5446 34.0455 16.6731 33.8999 16.8467C33.7553 17.0218 33.579 17.2383 33.4839 17.4481C33.7123 17.4189 33.9743 17.2779 34.1675 17.1341C34.3622 16.9915 34.4906 16.8526 34.4906 16.8526C34.5574 16.7822 34.6221 16.7099 34.6855 16.6364L40.3474 23.6281H39.4817L35.6777 18.9306C35.5774 18.8068 35.3957 18.7877 35.2721 18.888C35.1482 18.9883 35.1291 19.1699 35.2294 19.2938L38.7394 23.6281H3.85652L9.16926 17.0674C9.26949 16.9436 9.25046 16.7619 9.12663 16.6617C9.00274 16.5613 8.82114 16.5805 8.72091 16.7043L3.11411 23.628H2.24851L9.21794 15.0221ZM41.7789 47.1859C41.8053 47.1859 41.8269 47.2075 41.8269 47.234V48.1955C41.8269 48.222 41.8053 48.2436 41.7789 48.2436H0.817257C0.790743 48.2436 0.7692 48.222 0.7692 48.1955V47.234C0.7692 47.2075 0.790743 47.1859 0.817257 47.1859H1.92303H5.7692H36.8269H40.6731H41.7789ZM4.99994 31.9177V34.1789H2.69223V31.9177H4.99994ZM2.69229 31.533V30.2629H5V31.533H2.69229ZM4.99994 34.5635V36.8246H2.69223V34.5635H4.99994ZM4.99994 37.2092V39.4704H2.69223V37.2092H4.99994ZM4.99994 39.855V42.1162H2.69223V39.855H4.99994ZM4.99994 42.5008V44.762H2.69223V42.5008H4.99994ZM4.99994 45.1466V46.4167H2.69223V45.1466H4.99994ZM5.7692 46.4167V30.2629H36.8269V46.4167H5.7692V46.4167ZM39.9038 31.9177V34.1789H37.5961V31.9177H39.9038ZM37.5962 31.533V30.2629H39.9039V31.533H37.5962ZM39.9038 34.5635V36.8246H37.5961V34.5635H39.9038ZM39.9038 37.2092V39.4704H37.5961V37.2092H39.9038ZM39.9038 39.855V42.1162H37.5961V39.855H39.9038ZM39.9038 42.5008V44.762H37.5961V42.5008H39.9038ZM39.9038 45.1466V46.4167H37.5961V45.1466H39.9038ZM41.8269 27.8911H21.2981C21.1387 27.8911 21.0096 28.0202 21.0096 28.1795C21.0096 28.3389 21.1387 28.468 21.2981 28.468H41.8269V28.8205C41.8269 29.1916 41.5249 29.4936 41.1538 29.4936H40.673H36.8269H5.76914H1.92297H1.44217C1.07103 29.4936 0.769087 29.1916 0.769087 28.8205V28.468H16.071C16.2303 28.468 16.3594 28.3389 16.3594 28.1795C16.3594 28.0202 16.2303 27.8911 16.071 27.8911H0.7692V25.0705C0.7692 24.6994 1.07114 24.3975 1.44229 24.3975H41.1539C41.525 24.3975 41.827 24.6994 41.827 25.0705V27.8911H41.8269Z" fill="#42161A"/>
<path d="M32.9229 16.4452C32.9799 16.5156 33.0632 16.5521 33.1472 16.5521C33.211 16.5521 33.2751 16.5311 33.3285 16.4878C33.4524 16.3875 33.4715 16.2059 33.3712 16.082L27.8961 9.32102C27.796 9.19719 27.6144 9.17805 27.4905 9.27839C27.3667 9.37868 27.3476 9.56033 27.4479 9.68416L32.9229 16.4452Z" fill="#42161A"/>
<path d="M18.0823 5.60308C18.206 5.70331 18.3877 5.68422 18.488 5.56045L21.2981 2.09022L25.4552 7.22359C25.5122 7.29399 25.5955 7.33051 25.6796 7.33051C25.7433 7.33051 25.8076 7.30948 25.8609 7.26622C25.9847 7.16594 26.0038 6.98428 25.9035 6.86045L21.6983 1.66748C21.5997 1.54719 21.4539 1.47816 21.2981 1.47816C21.1424 1.47816 20.9966 1.54719 20.8971 1.66868L18.0396 5.19725C17.9394 5.32119 17.9584 5.50279 18.0823 5.60308Z" fill="#42161A"/>
<path d="M11.4231 13.8264C11.4765 13.8697 11.5407 13.8907 11.6044 13.8907C11.6885 13.8907 11.7718 13.8542 11.8288 13.7838L17.1409 7.22399C17.2412 7.10016 17.2221 6.9185 17.0983 6.81822C16.9744 6.71787 16.7928 6.73702 16.6926 6.86085L11.3805 13.4207C11.2802 13.5445 11.2993 13.7262 11.4231 13.8264Z" fill="#42161A"/>
<path d="M23.0106 7.04238C23.0106 6.0981 22.2424 5.32993 21.2981 5.32993C20.3539 5.32993 19.5857 6.0981 19.5857 7.04238C19.5857 7.98661 20.3539 8.75478 21.2981 8.75478C22.2424 8.75478 23.0106 7.98661 23.0106 7.04238ZM21.2981 8.17787C20.672 8.17787 20.1626 7.6685 20.1626 7.04238C20.1626 6.41627 20.672 5.90684 21.2981 5.90684C21.9242 5.90684 22.4336 6.41627 22.4336 7.04238C22.4336 7.6685 21.9242 8.17787 21.2981 8.17787Z" fill="#42161A"/>
<path d="M14.771 17.6876C14.771 16.7434 14.0029 15.9752 13.0586 15.9752C12.1144 15.9752 11.3462 16.7434 11.3462 17.6876C11.3462 18.6319 12.1144 19.4 13.0586 19.4C14.0029 19.4 14.771 18.6319 14.771 17.6876ZM13.0586 18.8231C12.4325 18.8231 11.9231 18.3137 11.9231 17.6876C11.9231 17.0615 12.4325 16.5521 13.0586 16.5521C13.6847 16.5521 14.1941 17.0615 14.1941 17.6876C14.1941 18.3137 13.6848 18.8231 13.0586 18.8231Z" fill="#42161A"/>
<path d="M25.6793 19.1974C24.735 19.1974 23.9668 19.9655 23.9668 20.9098C23.9668 21.854 24.735 22.6222 25.6793 22.6222C26.6234 22.6222 27.3916 21.854 27.3916 20.9098C27.3916 19.9655 26.6234 19.1974 25.6793 19.1974ZM25.6793 22.0453C25.0531 22.0453 24.5437 21.5359 24.5437 20.9098C24.5437 20.2837 25.0531 19.7743 25.6793 19.7743C26.3054 19.7743 26.8147 20.2837 26.8147 20.9098C26.8147 21.5359 26.3054 22.0453 25.6793 22.0453Z" fill="#42161A"/>
<path d="M16.8134 11.4241C16.4843 11.5493 16.2138 11.7643 16.0313 12.0458C15.7501 12.4791 15.7061 12.9648 15.9039 13.4503C16.0664 13.849 16.2932 14.068 16.5782 14.1011C16.7425 14.1202 16.8905 14.0706 17.0128 13.9989L17.1321 14.3121C17.1759 14.4273 17.2854 14.4981 17.4017 14.4981C17.4358 14.4981 17.4705 14.492 17.5042 14.4791L18.4479 14.12C18.5194 14.0927 18.5772 14.0383 18.6085 13.9685C18.6398 13.8987 18.6421 13.8193 18.6149 13.7478L18.4956 13.4345C18.6347 13.4068 18.7782 13.3454 18.8882 13.2219C19.0791 13.0077 19.103 12.6933 18.9591 12.2874C18.784 11.7934 18.4281 11.4599 17.9301 11.3231C17.6064 11.2343 17.2614 11.2535 16.9324 11.3789L16.8134 11.4241ZM17.1377 11.9179C17.1377 11.9179 17.1377 11.9179 17.1377 11.9179C17.3515 11.8364 17.5727 11.8231 17.7773 11.8793C18.0898 11.9651 18.3045 12.1672 18.4153 12.4801C18.4994 12.7174 18.4744 12.8188 18.4576 12.8379C18.4186 12.882 18.2519 12.8879 18.1413 12.8639C18.0377 12.8401 17.929 12.8754 17.8592 12.9557C17.7893 13.0359 17.7693 13.1482 17.8072 13.2477L17.973 13.6834L17.5686 13.8373L17.4028 13.4016C17.3652 13.3026 17.2758 13.2329 17.1709 13.2189C17.1582 13.2172 17.1456 13.2164 17.1331 13.2164C17.0414 13.2164 16.9537 13.2605 16.899 13.3358C16.8316 13.4286 16.703 13.5361 16.6446 13.5279C16.6194 13.5249 16.5332 13.4658 16.4382 13.2325C16.313 12.9252 16.3389 12.6315 16.5153 12.3597C16.6307 12.1816 16.8048 12.0445 17.0186 11.9631L17.1377 11.9179Z" fill="#42161A"/>
<path d="M26.3304 16.8599C26.3316 16.9364 26.3632 17.0092 26.4181 17.0625L27.1434 17.7649C27.1995 17.8191 27.2718 17.8461 27.3441 17.8461C27.4194 17.8461 27.4948 17.8167 27.5514 17.7583L27.7845 17.5175C27.8686 17.6318 27.9849 17.7357 28.1434 17.783C28.4189 17.8653 28.7133 17.7535 29.02 17.4512C29.3933 17.0832 29.5445 16.6196 29.4573 16.1104C29.4006 15.7797 29.2369 15.4755 28.984 15.2305L28.8925 15.1419C28.6394 14.8968 28.33 14.743 27.9978 14.697C27.4857 14.626 27.0276 14.792 26.6718 15.1769C26.3794 15.493 26.2773 15.7914 26.3682 16.0635C26.4206 16.2204 26.5281 16.3334 26.6449 16.4138L26.4117 16.6546C26.3584 16.7095 26.3292 16.7834 26.3304 16.8599ZM27.0954 15.5686C27.3206 15.3249 27.5977 15.2242 27.9186 15.2684C28.1286 15.2975 28.3267 15.3971 28.4911 15.5563L28.5826 15.6448C28.5826 15.6448 28.5826 15.6448 28.5826 15.6449C28.7469 15.804 28.8528 15.9987 28.8886 16.2079C28.9432 16.5273 28.8512 16.8074 28.6149 17.0404C28.4357 17.2171 28.3334 17.2376 28.3088 17.2303C28.2523 17.2138 28.1762 17.0653 28.1511 16.9548C28.1288 16.8508 28.0508 16.7675 27.9485 16.7382C27.9223 16.7307 27.8956 16.7271 27.8691 16.7271C27.7921 16.7271 27.717 16.7579 27.6618 16.8148L27.3375 17.1498L27.0267 16.8487L27.351 16.5138C27.425 16.4374 27.451 16.3263 27.4185 16.225C27.3859 16.1236 27.3002 16.0484 27.1954 16.0293C27.0989 16.0118 26.935 15.94 26.9153 15.8808C26.9073 15.8568 26.924 15.7539 27.0954 15.5686Z" fill="#42161A"/>
<path d="M18.8894 19.684L18.7711 19.6366C18.4443 19.5057 18.0996 19.4804 17.7746 19.5637C17.2742 19.6918 16.9127 20.0191 16.729 20.51C16.5782 20.9134 16.5966 21.2281 16.7838 21.4456C16.8917 21.571 17.0341 21.6348 17.1727 21.665L17.0481 21.9761C17.0196 22.0471 17.0205 22.1265 17.0506 22.1969C17.0808 22.2673 17.1376 22.3227 17.2085 22.3511L18.1457 22.7266C18.1802 22.7405 18.2166 22.7473 18.253 22.7473C18.2916 22.7473 18.3302 22.7395 18.3665 22.7241C18.4368 22.6939 18.4923 22.6371 18.5208 22.5661L18.6454 22.2549C18.7664 22.3287 18.9134 22.3809 19.0781 22.3647C19.3637 22.3366 19.5944 22.1216 19.7637 21.7257C19.9698 21.2437 19.9342 20.7574 19.6607 20.3193C19.483 20.0347 19.2163 19.815 18.8894 19.684ZM19.2332 21.4989C19.1342 21.7304 19.047 21.7879 19.0218 21.7906C18.9606 21.7948 18.8366 21.688 18.7716 21.5954C18.7115 21.5075 18.6084 21.4595 18.502 21.4716C18.3962 21.4833 18.3054 21.5522 18.2658 21.651L18.0925 22.0838L17.6908 21.9228L17.8641 21.4901C17.9037 21.3913 17.8857 21.2787 17.8172 21.1972C17.7487 21.1158 17.6412 21.0787 17.5367 21.1006C17.4407 21.121 17.2619 21.1166 17.221 21.0693C17.2045 21.05 17.181 20.9484 17.2694 20.7121C17.3856 20.4013 17.6037 20.2029 17.9176 20.1225C18.1232 20.0699 18.3442 20.0871 18.5565 20.1721L18.6748 20.2195C18.8872 20.3046 19.0589 20.4447 19.1713 20.6247C19.3429 20.8997 19.3637 21.1938 19.2332 21.4989Z" fill="#42161A"/>
<path d="M25.1428 10.7333C24.9683 10.6893 24.7873 10.7158 24.6331 10.8077C24.4787 10.8998 24.3694 11.0465 24.3252 11.2208L23.9952 12.5259C23.9511 12.7002 23.9775 12.8812 24.0696 13.0356C24.1616 13.1899 24.3084 13.2993 24.4827 13.3434C24.5379 13.3573 24.5935 13.3642 24.6489 13.3642C24.7688 13.3642 24.8869 13.332 24.9925 13.269C25.1469 13.1769 25.2562 13.0302 25.3004 12.8559L25.6303 11.5508C25.7212 11.1911 25.5025 10.8243 25.1428 10.7333ZM25.1641 11.433L24.8342 12.7381C24.8216 12.7879 24.7904 12.8298 24.7462 12.8561C24.7021 12.8825 24.6504 12.8901 24.6007 12.8774C24.5508 12.8648 24.5088 12.8335 24.4825 12.7894C24.4563 12.7453 24.4487 12.6936 24.4613 12.6438L24.7914 11.3387C24.804 11.2889 24.8352 11.247 24.8793 11.2206C24.9095 11.2026 24.9432 11.1934 24.9775 11.1934C24.9933 11.1934 25.0092 11.1954 25.0249 11.1994C25.1277 11.2254 25.1901 11.3302 25.1641 11.433Z" fill="#42161A"/>
<path d="M32.6642 19.5661C32.5936 19.4007 32.4628 19.2728 32.2959 19.2059C32.1289 19.1389 31.9461 19.141 31.7808 19.2117C31.6154 19.2823 31.4875 19.4131 31.4206 19.58C31.3536 19.7469 31.3557 19.9298 31.4264 20.0951L31.9554 21.3329C32.0261 21.4982 32.1569 21.6262 32.3237 21.6931C32.4049 21.7256 32.4897 21.7419 32.5744 21.7419C32.6642 21.7419 32.7538 21.7237 32.8388 21.6873C33.0042 21.6166 33.1321 21.4858 33.199 21.319C33.266 21.1521 33.2639 20.9691 33.1932 20.8039L32.6642 19.5661ZM32.7529 21.14C32.7337 21.1877 32.6972 21.225 32.65 21.2452C32.6026 21.2654 32.5503 21.2659 32.5028 21.2469C32.4551 21.2278 32.4177 21.1912 32.3976 21.144L31.8685 19.9061C31.8483 19.8589 31.8477 19.8067 31.8668 19.759C31.8859 19.7113 31.9225 19.6739 31.9697 19.6538C31.9941 19.6434 32.0197 19.6382 32.0453 19.6382C32.0696 19.6382 32.0938 19.6428 32.1169 19.6521C32.1646 19.6712 32.202 19.7078 32.2221 19.755L32.7511 20.9929C32.7714 21.0401 32.772 21.0923 32.7529 21.14Z" fill="#42161A"/>
<path d="M9.6393 21.809L10.8051 22.4821C10.9108 22.5431 11.0264 22.5721 11.1406 22.5721C11.3734 22.5721 11.6 22.4514 11.7246 22.2357C11.7246 22.2357 11.7246 22.2357 11.7246 22.2357C11.9101 21.9142 11.7995 21.5018 11.4782 21.3162L10.3124 20.6431C10.1567 20.5533 9.97519 20.5293 9.80164 20.5759C9.62799 20.6224 9.48284 20.7338 9.39296 20.8895C9.30307 21.0451 9.27919 21.2266 9.3257 21.4002C9.37222 21.5739 9.48359 21.7191 9.6393 21.809ZM9.80924 21.1299C9.8349 21.0854 9.87644 21.0536 9.92604 21.0403C9.94261 21.0359 9.95941 21.0337 9.97616 21.0337C10.0095 21.0337 10.0424 21.0425 10.072 21.0595L11.2378 21.7326C11.3296 21.7857 11.3612 21.9035 11.3082 21.9954C11.2824 22.0399 11.241 22.0717 11.1914 22.085C11.1418 22.0983 11.0899 22.0914 11.0455 22.0658L9.8797 21.3927C9.78781 21.3396 9.75622 21.2218 9.80924 21.1299Z" fill="#42161A"/>
<path d="M21.7587 18.1191C21.8167 18.1347 21.8755 18.1424 21.934 18.1424C22.0507 18.1424 22.1658 18.1118 22.2695 18.0519C22.5908 17.8664 22.7014 17.4539 22.5159 17.1325L21.8428 15.9667C21.7529 15.811 21.6077 15.6997 21.4341 15.6531C21.2604 15.6066 21.0791 15.6306 20.9233 15.7204C20.6019 15.906 20.4914 16.3185 20.6769 16.6398L21.3501 17.8056C21.4399 17.9613 21.585 18.0726 21.7587 18.1191ZM21.0933 16.3994C21.0403 16.3075 21.0719 16.1897 21.1637 16.1367C21.1933 16.1196 21.2262 16.1108 21.2596 16.1108C21.2763 16.1108 21.2931 16.113 21.3096 16.1175C21.3592 16.1308 21.4007 16.1626 21.4264 16.2071L22.0995 17.3729C22.1524 17.4647 22.1209 17.5826 22.0291 17.6356C21.9844 17.6613 21.9327 17.6682 21.8831 17.6548C21.8335 17.6415 21.7921 17.6097 21.7664 17.5652L21.0933 16.3994Z" fill="#42161A"/>
<path d="M18.7633 27.8911H17.8846C17.7253 27.8911 17.5962 28.0202 17.5962 28.1795C17.5962 28.3389 17.7253 28.468 17.8846 28.468H18.7633C18.9226 28.468 19.0517 28.3389 19.0517 28.1795C19.0517 28.0202 18.9226 27.8911 18.7633 27.8911Z" fill="#42161A"/>
<path d="M20.8807 10.6287C20.9423 10.6072 20.9908 10.5725 21.0295 10.5365C21.1068 10.4631 21.1488 10.3831 21.1789 10.3037C21.1932 10.2636 21.2047 10.2236 21.2114 10.182C21.2178 10.1433 21.221 10.1102 21.2236 10.0778C21.2327 9.94966 21.2363 9.85178 21.2615 9.78744C21.2839 9.72509 21.3308 9.67784 21.3999 9.63835C21.4667 9.59898 21.5444 9.56989 21.6122 9.53984C21.6806 9.51018 21.7416 9.48018 21.789 9.44944C21.8363 9.41824 21.87 9.38864 21.8907 9.36664C21.9106 9.34407 21.9211 9.33224 21.9211 9.33224C21.9211 9.33224 21.9069 9.33978 21.8799 9.35418C21.853 9.36755 21.8123 9.38344 21.7606 9.39629C21.7087 9.40921 21.6456 9.41715 21.5722 9.42475C21.4987 9.43309 21.4142 9.43812 21.3156 9.46532C21.2201 9.48949 21.0955 9.55452 21.022 9.67875C20.9483 9.79949 20.9277 9.93504 20.9004 10.0457C20.8864 10.1053 20.8739 10.1421 20.8516 10.1813C20.8307 10.2197 20.8014 10.2528 20.7792 10.2665C20.755 10.2791 20.7563 10.2725 20.7516 10.271C20.7502 10.2705 20.7291 10.257 20.7112 10.2263C20.6942 10.1995 20.681 10.1554 20.6711 10.0989C20.6612 10.0425 20.6554 9.97561 20.6433 9.89989C20.6307 9.82418 20.6113 9.74241 20.5704 9.66115C20.55 9.62075 20.5235 9.58092 20.4914 9.54561C20.4572 9.50744 20.4155 9.47612 20.3726 9.45452C20.2869 9.41144 20.1847 9.39361 20.0834 9.42824C20.0351 9.44355 19.9845 9.48161 19.9638 9.50561C19.9414 9.53104 19.9332 9.53652 19.9382 9.54155C19.9391 9.54429 19.9391 9.54435 19.9392 9.54504C19.9389 9.54669 19.9376 9.54789 19.9345 9.54892C19.9272 9.55024 19.9141 9.54612 19.9015 9.53818C19.8754 9.52144 19.8537 9.49429 19.8431 9.46395C19.8194 9.39127 19.8265 9.29881 19.8154 9.22069C19.8076 9.14029 19.7707 9.07641 19.7324 9.04304C19.6939 9.00721 19.6563 9.00149 19.6373 9.00464C19.6175 9.00784 19.6101 9.01469 19.6099 9.01389C19.6095 9.01658 19.6507 9.00807 19.684 9.07875C19.6919 9.09589 19.698 9.11749 19.7 9.14041C19.7014 9.15184 19.7009 9.16355 19.6999 9.17469C19.6984 9.18806 19.6967 9.20286 19.6935 9.21892C19.6843 9.28321 19.6481 9.36481 19.6531 9.49584C19.6602 9.57252 19.6897 9.64321 19.746 9.70544C19.7749 9.73612 19.8123 9.76601 19.8653 9.78464C19.9171 9.80384 19.9891 9.80452 20.0467 9.77898C20.105 9.75338 20.1347 9.72246 20.1502 9.71406C20.1643 9.70584 20.1584 9.71275 20.1643 9.71235C20.1708 9.71424 20.1941 9.72012 20.212 9.73692C20.2408 9.75835 20.2729 9.83887 20.279 9.95601C20.2838 10.0154 20.2853 10.0866 20.2968 10.169C20.3027 10.2102 20.3116 10.2546 20.3259 10.3004C20.3404 10.3464 20.3628 10.3977 20.3924 10.4422C20.4496 10.5309 20.5467 10.621 20.6843 10.6454C20.7502 10.6564 20.8195 10.6506 20.8807 10.6287Z" fill="#42161A"/>
<path d="M24.2745 14.8438C24.3556 14.8578 24.4489 14.8374 24.5174 14.7954C24.5877 14.7526 24.6342 14.6913 24.6615 14.6359C24.7155 14.5257 24.718 14.4199 24.7149 14.3443C24.7113 14.2679 24.7044 14.2105 24.7057 14.1646C24.7075 14.1165 24.7113 14.0894 24.727 14.0603C24.7419 14.0319 24.7623 14.0117 24.7793 14.0002C24.8139 13.9761 24.8407 13.9841 24.8408 13.9825C24.8395 13.9862 24.8309 13.9495 24.762 13.9426C24.7286 13.9402 24.6826 13.9495 24.6363 13.9791C24.5889 14.007 24.5443 14.0643 24.5167 14.1286C24.4875 14.1934 24.4708 14.2669 24.4521 14.3322C24.4345 14.3962 24.4081 14.4501 24.3774 14.4787C24.3624 14.492 24.351 14.4943 24.3453 14.4915C24.3388 14.4892 24.341 14.4848 24.3341 14.4805C24.3212 14.4738 24.2781 14.439 24.2579 14.3991C24.249 14.3844 24.2365 14.3528 24.2271 14.3196C24.2172 14.2859 24.2084 14.2477 24.1991 14.2055C24.1798 14.121 24.1603 14.0263 24.1113 13.9269C24.0861 13.8777 24.0527 13.8279 24.0035 13.7864C23.9571 13.7445 23.8823 13.7168 23.8353 13.7155C23.7877 13.7122 23.7596 13.7164 23.7412 13.7162C23.7213 13.7166 23.6992 13.7107 23.6779 13.6999C23.5885 13.6542 23.5399 13.5499 23.5124 13.4843C23.4849 13.4158 23.4694 13.3774 23.4694 13.3774C23.4694 13.3774 23.4604 13.4155 23.4527 13.4911C23.4495 13.5291 23.4469 13.5775 23.456 13.6377C23.466 13.6982 23.4884 13.7706 23.5465 13.8404C23.5755 13.875 23.6154 13.9087 23.6665 13.932C23.7181 13.9548 23.7604 13.9625 23.7785 13.9723C23.796 13.9822 23.7858 13.9829 23.7931 13.9939C23.7974 14.0041 23.8048 14.0232 23.8103 14.0483C23.8221 14.0999 23.8273 14.1767 23.836 14.2673C23.848 14.3609 23.8557 14.4682 23.9296 14.6001C24.0038 14.7179 24.1101 14.8154 24.2745 14.8438Z" fill="#42161A"/>
<path d="M16.7675 18.1711C16.8365 18.2088 16.921 18.2284 16.9979 18.223C17.0768 18.2205 17.1533 18.1926 17.2131 18.1533C17.2735 18.1141 17.32 18.0648 17.3559 18.0132C17.4265 17.911 17.4599 17.7909 17.4636 17.6845C17.4702 17.4719 17.4096 17.3078 17.3822 17.1617C17.3527 17.0168 17.3467 16.8823 17.3853 16.7717C17.4205 16.6595 17.5091 16.5866 17.5928 16.5547C17.6769 16.5207 17.7575 16.5285 17.8076 16.5484C17.8325 16.5584 17.8514 16.5689 17.8627 16.5775C17.8744 16.5858 17.8805 16.5901 17.8805 16.5901C17.8805 16.5901 17.8753 16.5847 17.8653 16.5741C17.8555 16.5631 17.8387 16.5487 17.8141 16.5332C17.7655 16.5024 17.678 16.4759 17.5737 16.4975C17.522 16.5079 17.4659 16.5284 17.4116 16.5658C17.357 16.603 17.3053 16.6617 17.272 16.7266C17.1998 16.8601 17.1829 17.0276 17.1921 17.1933C17.2007 17.358 17.2291 17.5249 17.2009 17.6675C17.1884 17.7345 17.1575 17.7957 17.1142 17.8419C17.0697 17.8886 17.0251 17.9049 16.9853 17.8981C16.9465 17.8927 16.9072 17.8673 16.8655 17.8041C16.8263 17.7423 16.7944 17.6578 16.7797 17.5703C16.7725 17.5301 16.7679 17.4759 16.7621 17.4194C16.7565 17.3631 16.7504 17.3037 16.7405 17.2411C16.72 17.1177 16.6893 16.973 16.5895 16.8353C16.5404 16.7681 16.472 16.7078 16.4021 16.6686C16.3333 16.6294 16.2711 16.6075 16.2181 16.5871C16.1663 16.5677 16.1219 16.5506 16.0937 16.5337C16.0638 16.5167 16.0513 16.5035 16.0383 16.4855C16.0273 16.4673 16.0181 16.4429 16.0128 16.4084C16.008 16.3737 16.0087 16.3293 16.0107 16.2829C16.0157 16.1869 16.0316 16.0792 16.0245 15.9553C16.0216 15.8349 15.9726 15.684 15.8815 15.5885C15.7927 15.4903 15.6925 15.441 15.6076 15.3999C15.5214 15.3598 15.4435 15.3301 15.3779 15.2972C15.3113 15.265 15.2628 15.2306 15.2162 15.1873C15.1251 15.101 15.0697 14.9916 15.038 14.8914C15.0084 14.7899 15.0032 14.6962 15.0094 14.6209C15.0144 14.5449 15.0335 14.4882 15.0458 14.4497C15.0613 14.4122 15.0694 14.3925 15.0694 14.3925C15.0694 14.3925 15.056 14.4101 15.0304 14.4434C15.0084 14.4791 14.9733 14.5334 14.9495 14.6142C14.925 14.6942 14.9074 14.8 14.921 14.9247C14.9354 15.0483 14.9792 15.1926 15.0824 15.3263C15.1339 15.3918 15.204 15.4541 15.2779 15.5029C15.3515 15.552 15.4292 15.5947 15.4993 15.64C15.5699 15.6849 15.6305 15.735 15.6641 15.7885C15.6967 15.8418 15.7053 15.8991 15.7008 15.9821C15.696 16.0647 15.6744 16.1604 15.6612 16.2775C15.6543 16.3352 15.6512 16.4017 15.6595 16.4749C15.6664 16.5471 15.6933 16.6326 15.7429 16.7043C15.7904 16.7785 15.8636 16.8355 15.9275 16.8706C15.9928 16.9074 16.0524 16.9295 16.1028 16.9503C16.154 16.9708 16.1941 16.9895 16.2226 17.0081C16.2483 17.0263 16.2695 17.0464 16.2883 17.0751C16.3265 17.1315 16.3521 17.222 16.3687 17.3239C16.3773 17.3749 16.3844 17.4288 16.392 17.4849L16.4044 17.571C16.4098 17.6042 16.4162 17.6369 16.4243 17.6688C16.4577 17.7962 16.5079 17.918 16.5973 18.0281C16.6418 18.0824 16.6976 18.1338 16.7675 18.1711Z" fill="#42161A"/>
<path d="M31.341 18.2761C31.3151 18.2589 31.273 18.2382 31.2145 18.2253C31.1562 18.2137 31.0811 18.2107 30.9978 18.2328C30.9159 18.2534 30.8202 18.305 30.7466 18.3871C30.6717 18.4686 30.615 18.5778 30.5867 18.6999C30.5721 18.7604 30.5646 18.8267 30.5644 18.8911C30.5637 18.9547 30.5679 19.0157 30.5722 19.0739C30.5815 19.1891 30.5883 19.2999 30.5663 19.3665C30.557 19.3982 30.54 19.425 30.523 19.4392C30.5046 19.4557 30.4773 19.4696 30.4504 19.474C30.4227 19.4782 30.4025 19.476 30.3779 19.4655C30.3538 19.4549 30.3307 19.4356 30.316 19.4146C30.3017 19.3946 30.2932 19.3725 30.2893 19.3333C30.2857 19.2954 30.2893 19.2465 30.2953 19.1917C30.3006 19.1374 30.3093 19.0762 30.3079 19.0057C30.3062 18.9381 30.2967 18.8703 30.2712 18.8027C30.2469 18.7362 30.2021 18.6678 30.1387 18.6226C30.1078 18.6002 30.0724 18.5833 30.043 18.5743C30.0136 18.5651 29.9889 18.5605 29.9685 18.5566C29.9271 18.549 29.9068 18.5455 29.8928 18.5385C29.8772 18.5317 29.8638 18.5201 29.8527 18.5018C29.8305 18.4648 29.8227 18.4122 29.8199 18.3705C29.8176 18.3277 29.8191 18.2925 29.8205 18.2687C29.8221 18.2447 29.823 18.2322 29.823 18.2322C29.823 18.2322 29.8165 18.2437 29.8043 18.2657C29.7925 18.2879 29.7757 18.321 29.7599 18.3667C29.7455 18.4125 29.7276 18.4712 29.74 18.5476C29.7466 18.5853 29.7646 18.6281 29.7989 18.6637C29.8329 18.7011 29.8815 18.7236 29.9194 18.7427C29.9598 18.7623 29.9855 18.7802 29.9979 18.8024C30.0119 18.8242 30.0193 18.8523 30.022 18.8869C30.0245 18.9215 30.021 18.9618 30.0125 19.0033C30.0041 19.042 29.9884 19.0928 29.9733 19.1498C29.9584 19.2075 29.9422 19.2743 29.9406 19.3562C29.9382 19.4361 29.9589 19.5381 30.011 19.6213C30.0618 19.7042 30.1362 19.7725 30.2292 19.8158C30.3219 19.8601 30.4373 19.8722 30.538 19.8488C30.6399 19.8263 30.7325 19.7743 30.803 19.697C30.8738 19.6183 30.9121 19.5257 30.9278 19.4375C30.9556 19.2607 30.9158 19.1311 30.8925 19.0201C30.8658 18.9075 30.8451 18.8222 30.8474 18.7354C30.8483 18.6489 30.8675 18.5682 30.9019 18.5007C30.9691 18.3637 31.1101 18.2967 31.211 18.2857C31.2623 18.2798 31.3058 18.2845 31.3345 18.2915C31.3635 18.2982 31.379 18.3038 31.379 18.3038C31.379 18.3038 31.367 18.293 31.341 18.2761Z" fill="#42161A"/>
<path d="M22.6693 20.8585C22.6532 20.8367 22.6447 20.8253 22.6447 20.8253C22.6447 20.8253 22.6481 20.8393 22.6546 20.8659C22.6587 20.8927 22.6638 20.9317 22.658 20.9786C22.6475 21.073 22.5917 21.1907 22.4921 21.3033C22.4427 21.3591 22.38 21.4185 22.3135 21.4903C22.2478 21.5627 22.1731 21.6507 22.1227 21.7772C22.0709 21.9073 22.0699 22.0513 22.0751 22.1686C22.0775 22.2282 22.0809 22.2835 22.0809 22.3338C22.0808 22.3871 22.0779 22.4183 22.0673 22.4581C22.0577 22.4964 22.0413 22.5306 22.0255 22.5546C22.0087 22.5779 21.9965 22.5886 21.9877 22.5934C21.9766 22.5992 21.9663 22.6038 21.9464 22.5985C21.9265 22.5941 21.8995 22.5759 21.8759 22.5512C21.7754 22.4586 21.77 22.2483 21.733 22.0809C21.6993 21.9049 21.6033 21.7814 21.5248 21.7371C21.4445 21.6913 21.398 21.7071 21.3992 21.7039C21.3977 21.7057 21.4419 21.7194 21.4831 21.7805C21.5247 21.8419 21.5569 21.9504 21.5411 22.0953C21.5356 22.1705 21.5212 22.2581 21.5184 22.3669C21.5174 22.4221 21.5194 22.4791 21.5335 22.5479C21.5487 22.6157 21.5747 22.6821 21.6159 22.7458C21.6572 22.8089 21.7151 22.8716 21.8002 22.9161C21.886 22.9608 21.9982 22.9748 22.1 22.9444C22.2034 22.9139 22.2853 22.8444 22.3372 22.7723C22.3913 22.6993 22.4232 22.621 22.4434 22.5401C22.4826 22.3651 22.4515 22.2307 22.4405 22.1223C22.4258 22.0118 22.4199 21.9319 22.4361 21.8623C22.4685 21.7131 22.5915 21.5554 22.6624 21.3927C22.7351 21.2291 22.7456 21.0719 22.7174 20.9693C22.7041 20.9176 22.6832 20.8815 22.6693 20.8585Z" fill="#42161A"/>
<path d="M30.4828 22.1646C30.4393 22.1067 30.3979 22.0695 30.3688 22.0449C30.3396 22.0206 30.322 22.0089 30.322 22.0089C30.322 22.0089 30.3201 22.0329 30.3168 22.075C30.3141 22.1164 30.3118 22.1751 30.3056 22.2395C30.2993 22.3036 30.2876 22.3733 30.2662 22.4294C30.2456 22.4879 30.2163 22.5331 30.1939 22.5607C30.178 22.5831 30.149 22.614 30.1196 22.6339C30.1052 22.6441 30.0865 22.6522 30.0692 22.6561C30.0493 22.6594 30.0238 22.6518 30.0017 22.6383C29.9564 22.6114 29.9241 22.5607 29.9177 22.5172C29.9133 22.4954 29.9142 22.4759 29.9158 22.4627C29.9178 22.449 29.9189 22.4417 29.9189 22.4417C29.9189 22.4417 29.9131 22.4457 29.9022 22.4534C29.8914 22.4614 29.8758 22.4753 29.8608 22.4974C29.8296 22.5409 29.8031 22.6218 29.8273 22.7197C29.8394 22.7682 29.8649 22.8216 29.9146 22.8689C29.9667 22.9178 30.0316 22.9469 30.1042 22.9582C30.2477 22.9784 30.4027 22.9213 30.5024 22.7905C30.5964 22.6638 30.6077 22.5222 30.5904 22.4147C30.5721 22.3028 30.5253 22.2227 30.4828 22.1646Z" fill="#42161A"/>
<path d="M14.5467 21.4773C14.5358 21.437 14.5277 21.4155 14.5277 21.4155C14.5277 21.4155 14.5118 21.4366 14.4867 21.4741C14.4614 21.5112 14.4272 21.5656 14.3852 21.6227C14.3436 21.6798 14.2919 21.7365 14.2386 21.7698C14.1953 21.7931 14.1352 21.8055 14.1004 21.8054C14.0835 21.8046 14.0788 21.8069 14.0715 21.8088C14.063 21.8116 14.047 21.8072 14.0304 21.7892C13.9963 21.752 13.9742 21.6846 13.9732 21.6155C13.9709 21.5463 13.979 21.4804 13.9827 21.435C13.9869 21.3891 13.9877 21.3623 13.9877 21.3623C13.9877 21.3623 13.9674 21.3751 13.9327 21.4018C13.8983 21.429 13.8475 21.469 13.7957 21.5415C13.7456 21.6122 13.6916 21.7318 13.7191 21.8808C13.7328 21.9548 13.7733 22.0407 13.8499 22.103C13.9258 22.1661 14.0292 22.1948 14.1179 22.1895C14.2972 22.1792 14.4306 22.0802 14.5034 21.9574C14.5678 21.8436 14.5766 21.7364 14.5744 21.6573C14.5715 21.577 14.5572 21.5178 14.5467 21.4773Z" fill="#42161A"/>
<path d="M7.69985 22.1118C7.66625 22.1334 7.61991 22.1659 7.56808 22.203C7.51619 22.2399 7.45859 22.2806 7.40277 22.313C7.34751 22.3455 7.29631 22.3666 7.2478 22.3869C7.20111 22.4067 7.16362 22.4209 7.12739 22.4321C7.09128 22.4427 7.03151 22.4306 6.98688 22.4027C6.94077 22.3759 6.90568 22.3319 6.89128 22.2921C6.88437 22.2725 6.8798 22.2545 6.8786 22.2423C6.87682 22.2295 6.87585 22.2226 6.87585 22.2226C6.87585 22.2226 6.87151 22.2273 6.86328 22.2361C6.85448 22.2451 6.84408 22.2598 6.83208 22.2814C6.80962 22.3239 6.79208 22.3997 6.81402 22.4869C6.83557 22.5726 6.89185 22.6735 7.01402 22.7362C7.13488 22.7958 7.28145 22.7921 7.40094 22.7398C7.52031 22.6897 7.60711 22.599 7.65711 22.5146C7.70774 22.4299 7.72934 22.3506 7.74145 22.2862C7.75311 22.2215 7.75505 22.1702 7.75545 22.1345C7.75574 22.0989 7.7542 22.079 7.7542 22.079C7.7542 22.079 7.73345 22.0901 7.69985 22.1118Z" fill="#42161A"/>
<path d="M24.0597 9.36941C24.0253 9.38952 23.997 9.40158 23.9648 9.40644C23.9302 9.41118 23.8852 9.40055 23.8485 9.38215C23.8116 9.36375 23.7822 9.33855 23.764 9.31775C23.7453 9.29695 23.7361 9.28204 23.7361 9.28204C23.7361 9.28204 23.7329 9.2861 23.7269 9.29375C23.7207 9.30175 23.7132 9.31398 23.7054 9.33181C23.6903 9.3669 23.6781 9.42638 23.6976 9.50152C23.7172 9.57438 23.7704 9.66501 23.8798 9.7197C23.9898 9.77632 24.146 9.77084 24.2644 9.69524C24.3842 9.62215 24.4593 9.48581 24.4578 9.36015C24.4572 9.2361 24.3986 9.14672 24.3404 9.09661C24.2803 9.04552 24.2204 9.03021 24.1816 9.02855C24.1422 9.02695 24.1224 9.03472 24.1224 9.03472C24.1224 9.03472 24.133 9.04987 24.145 9.07621C24.157 9.10232 24.168 9.14152 24.1689 9.18398C24.1705 9.22632 24.1587 9.27261 24.1388 9.30078C24.1195 9.32655 24.0935 9.3489 24.0597 9.36941Z" fill="#42161A"/>
<path d="M16.8773 9.60125C16.8421 9.62331 16.8053 9.64628 16.7673 9.67011C16.7516 9.67897 16.7374 9.68583 16.7271 9.68965C16.7229 9.69114 16.7199 9.69194 16.7178 9.69234C16.7168 9.69114 16.7157 9.69 16.7148 9.68874C16.6902 9.64451 16.6946 9.5536 16.6957 9.47508C16.6974 9.39451 16.6854 9.32388 16.6661 9.28342C16.6473 9.24217 16.6287 9.22754 16.6287 9.22754C16.6287 9.22754 16.623 9.24743 16.6062 9.27788C16.5895 9.30891 16.5601 9.34817 16.5168 9.40428C16.4771 9.46217 16.407 9.54017 16.3902 9.6952C16.3861 9.7792 16.4032 9.86583 16.4666 9.95017C16.4982 9.99154 16.5463 10.0315 16.6062 10.055C16.6658 10.0779 16.7321 10.0818 16.7879 10.0702C16.9007 10.0457 16.961 9.99148 17.0093 9.94743C17.0554 9.90171 17.0857 9.86297 17.1173 9.81971C17.1778 9.73543 17.2188 9.65171 17.2464 9.57988C17.2738 9.50777 17.2878 9.44725 17.2954 9.40531C17.303 9.36337 17.3043 9.33971 17.3043 9.33971C17.3043 9.33971 17.2186 9.39223 17.0862 9.47325C17.026 9.51023 16.9552 9.55354 16.8773 9.60125Z" fill="#42161A"/>
<path d="M35.9616 22.5706C36.2091 22.5706 36.2095 22.1859 35.9616 22.1859C35.7142 22.1859 35.7138 22.5706 35.9616 22.5706Z" fill="#42161A"/>
<path d="M35.0803 22.1218C35.3278 22.1218 35.3282 21.7372 35.0803 21.7372C34.8328 21.7373 34.8324 22.1218 35.0803 22.1218Z" fill="#42161A"/>
<path d="M35.0161 23.0353C35.2636 23.0353 35.264 22.6507 35.0161 22.6507C34.7686 22.6507 34.7682 23.0353 35.0161 23.0353Z" fill="#42161A"/>
<path d="M20.9616 12.4423C20.7142 12.4423 20.7138 12.827 20.9616 12.827C21.2091 12.827 21.2095 12.4423 20.9616 12.4423Z" fill="#42161A"/>
<path d="M20.9294 13.5962C20.6819 13.5962 20.6815 13.9808 20.9294 13.9808C21.1769 13.9808 21.1773 13.5962 20.9294 13.5962Z" fill="#42161A"/>
<path d="M21.8271 13.6443C22.0746 13.6443 22.075 13.2596 21.8271 13.2596C21.5796 13.2596 21.5792 13.6443 21.8271 13.6443Z" fill="#42161A"/>
<path d="M15.4807 19.4455C15.2332 19.4455 15.2328 19.8302 15.4807 19.8302C15.7282 19.8302 15.7286 19.4455 15.4807 19.4455Z" fill="#42161A"/>
<path d="M14.6635 19.9744C14.4161 19.9744 14.4157 20.359 14.6635 20.359C14.911 20.359 14.9114 19.9744 14.6635 19.9744Z" fill="#42161A"/>
<path d="M15.4328 20.4551C15.1853 20.4551 15.1849 20.8398 15.4328 20.8398C15.6803 20.8398 15.6807 20.4551 15.4328 20.4551Z" fill="#42161A"/>
<path d="M8.10105 20.335C7.85356 20.335 7.85316 20.7196 8.10105 20.7196C8.34853 20.7196 8.34893 20.335 8.10105 20.335Z" fill="#42161A"/>
<path d="M22.0512 19.7019C22.2987 19.7019 22.2991 19.3173 22.0512 19.3173C21.8038 19.3174 21.8034 19.7019 22.0512 19.7019Z" fill="#42161A"/>
<path d="M22.8044 19.9263C22.5569 19.9263 22.5565 20.311 22.8044 20.311C23.0519 20.3109 23.0523 19.9263 22.8044 19.9263Z" fill="#42161A"/>
<path d="M23.0771 19.0449C22.8296 19.0449 22.8292 19.4295 23.0771 19.4295C23.3246 19.4295 23.325 19.0449 23.0771 19.0449Z" fill="#42161A"/>
<path d="M28.9424 20.984C28.6949 20.984 28.6945 21.3686 28.9424 21.3686C29.1898 21.3686 29.1902 20.984 28.9424 20.984Z" fill="#42161A"/>
<path d="M25.7693 8.468C25.5218 8.468 25.5214 8.85263 25.7693 8.85263C26.0167 8.85257 26.0171 8.468 25.7693 8.468Z" fill="#42161A"/>
<path d="M13.3012 13.9487C13.0538 13.9487 13.0534 14.3334 13.3012 14.3334C13.5487 14.3334 13.5491 13.9487 13.3012 13.9487Z" fill="#42161A"/>
<path d="M18.1252 8.33977C18.3727 8.33977 18.3731 7.95514 18.1252 7.95514C17.8777 7.95514 17.8773 8.33977 18.1252 8.33977Z" fill="#42161A"/>
<path d="M28.3974 13.0513C28.6449 13.0513 28.6453 12.6667 28.3974 12.6667C28.1499 12.6667 28.1495 13.0513 28.3974 13.0513Z" fill="#42161A"/>
<path d="M3.23698 33.7405C3.42258 33.7405 3.42293 33.452 3.23698 33.452C3.05138 33.452 3.05104 33.7405 3.23698 33.7405Z" fill="#42161A"/>
<path d="M4.58318 39.1571C4.76878 39.1571 4.76912 38.8686 4.58318 38.8686C4.39758 38.8686 4.39723 39.1571 4.58318 39.1571Z" fill="#42161A"/>
<path d="M4.35903 38.6443C4.54463 38.6443 4.54498 38.3558 4.35903 38.3558C4.17343 38.3558 4.17315 38.6443 4.35903 38.6443Z" fill="#42161A"/>
<path d="M4.03848 39.0289C4.22408 39.0289 4.22442 38.7404 4.03848 38.7404C3.85288 38.7404 3.85259 39.0289 4.03848 39.0289Z" fill="#42161A"/>
<path d="M38.0771 44.4696C38.2627 44.4696 38.263 44.1811 38.0771 44.1811C37.8915 44.1811 37.8912 44.4696 38.0771 44.4696Z" fill="#42161A"/>
<path d="M39.3512 36.5128C39.5368 36.5128 39.5372 36.2244 39.3512 36.2244C39.1656 36.2244 39.1653 36.5128 39.3512 36.5128Z" fill="#42161A"/>
<path d="M39.3029 35.984C39.4885 35.984 39.4888 35.6956 39.3029 35.6956C39.1173 35.6956 39.117 35.984 39.3029 35.984Z" fill="#42161A"/>
<path d="M38.7502 36.2725C38.9358 36.2725 38.9361 35.984 38.7502 35.984C38.5646 35.984 38.5642 36.2725 38.7502 36.2725Z" fill="#42161A"/>
<path d="M38.205 30.7597C38.0194 30.7597 38.0191 31.0481 38.205 31.0481C38.3906 31.0481 38.3909 30.7597 38.205 30.7597Z" fill="#42161A"/>
<path d="M10.9836 37.7303V32.2756H13.377C13.5629 32.2756 13.7538 32.2976 13.9496 32.3416C14.1454 32.3808 14.324 32.4664 14.4855 32.5986C14.6519 32.7258 14.7841 32.9216 14.882 33.1859C14.9847 33.4453 15.0361 33.7928 15.0361 34.2284C15.0361 34.6689 14.9872 35.0237 14.8893 35.2929C14.7914 35.5572 14.6642 35.7579 14.5076 35.8949C14.3509 36.0271 14.1796 36.1176 13.9936 36.1666C13.8126 36.2106 13.6339 36.2326 13.4577 36.2326C13.2717 36.2326 13.0784 36.2131 12.8777 36.1739C12.6771 36.1348 12.5204 36.1054 12.4079 36.0858V37.7303H10.9836ZM12.4079 34.9552H13.2301C13.377 34.9552 13.4773 34.8965 13.5311 34.779C13.585 34.6567 13.6119 34.478 13.6119 34.2431C13.6119 34.018 13.5825 33.8466 13.5238 33.7292C13.4651 33.6117 13.3672 33.553 13.2301 33.553H12.4079V34.9552ZM15.6294 37.7303V32.2756H17.0537V37.7303H15.6294ZM17.7123 37.7303V36.5997L19.7459 33.553H17.7123V32.2756H21.4785V33.4062L19.4449 36.4529H21.4785V37.7303H17.7123ZM21.9925 37.7303V36.5997L24.0261 33.553H21.9925V32.2756H25.7587V33.4062L23.7251 36.4529H25.7587V37.7303H21.9925ZM26.0524 37.7303L27.6675 32.2756H29.4442L31.0593 37.7303H29.5837L29.3634 36.864H27.7263L27.5133 37.7303H26.0524ZM28.0566 35.5866H29.033L28.5412 33.4869L28.0566 35.5866Z" fill="#42161A"/>
<path d="M9.29139 43.8842V38.4515H10.3779V40.7126H12.4262V38.4515H13.5201V43.8842H12.4262V41.6891H10.3779V43.8842H9.29139ZM16.5531 43.9282C16.1811 43.9282 15.8556 43.894 15.5767 43.8255C15.2977 43.752 15.0652 43.6199 14.8792 43.429C14.6932 43.2332 14.5513 42.9543 14.4534 42.5921C14.3604 42.2299 14.3139 41.7576 14.3139 41.1752C14.3139 40.5927 14.3604 40.1204 14.4534 39.7582C14.5513 39.3912 14.6932 39.1097 14.8792 38.914C15.0701 38.7182 15.3026 38.5836 15.5767 38.5102C15.8556 38.4368 16.1811 38.4001 16.5531 38.4001C16.925 38.4001 17.2505 38.4368 17.5295 38.5102C17.8085 38.5836 18.041 38.7182 18.2269 38.914C18.4129 39.1097 18.5524 39.3912 18.6454 39.7582C18.7384 40.1204 18.7849 40.5927 18.7849 41.1752C18.7849 41.7576 18.7384 42.2299 18.6454 42.5921C18.5524 42.9543 18.4129 43.2332 18.2269 43.429C18.041 43.6199 17.806 43.752 17.5222 43.8255C17.2432 43.894 16.9202 43.9282 16.5531 43.9282ZM16.5531 42.9518C16.7684 42.9518 16.9495 42.9298 17.0964 42.8857C17.2481 42.8368 17.3655 42.7487 17.4487 42.6214C17.5368 42.4942 17.6005 42.3155 17.6396 42.0855C17.6788 41.8506 17.6984 41.5471 17.6984 41.1752C17.6984 40.7885 17.6788 40.4777 17.6396 40.2428C17.6005 40.003 17.5368 39.8219 17.4487 39.6995C17.3606 39.5723 17.2432 39.4866 17.0964 39.4426C16.9495 39.3985 16.7684 39.3765 16.5531 39.3765C16.3377 39.3765 16.1566 39.3985 16.0098 39.4426C15.8679 39.4866 15.7504 39.5723 15.6574 39.6995C15.5693 39.8219 15.5032 40.003 15.4592 40.2428C15.42 40.4777 15.4005 40.7885 15.4005 41.1752C15.4005 41.5471 15.4176 41.8506 15.4518 42.0855C15.491 42.3155 15.5546 42.4942 15.6427 42.6214C15.7308 42.7487 15.8483 42.8368 15.9951 42.8857C16.142 42.9298 16.3279 42.9518 16.5531 42.9518ZM21.635 43.9209C21.3316 43.9209 21.0501 43.8964 20.7907 43.8475C20.5362 43.7936 20.3111 43.7031 20.1153 43.5758C19.9244 43.4437 19.7752 43.2626 19.6675 43.0326C19.5647 42.7976 19.5133 42.4991 19.5133 42.1369V38.4515H20.5999V42.1296C20.5999 42.4281 20.6904 42.6386 20.8715 42.7609C21.0526 42.8833 21.3071 42.9445 21.635 42.9445C21.958 42.9445 22.2101 42.8833 22.3912 42.7609C22.5723 42.6386 22.6628 42.4281 22.6628 42.1296V38.4515H23.7567V42.1369C23.7567 42.4991 23.7029 42.7976 23.5952 43.0326C23.4875 43.2626 23.3383 43.4437 23.1474 43.5758C22.9565 43.7031 22.7314 43.7936 22.472 43.8475C22.2126 43.8964 21.9336 43.9209 21.635 43.9209ZM26.2569 43.9282C25.9779 43.9282 25.6793 43.9136 25.3612 43.8842C25.0479 43.8499 24.7788 43.8034 24.5536 43.7447V42.8857C24.769 42.9053 25.0284 42.9224 25.3318 42.9371C25.6402 42.9469 25.9314 42.9518 26.2055 42.9518C26.4844 42.9518 26.7047 42.9151 26.8662 42.8417C27.0277 42.7634 27.1085 42.6165 27.1085 42.4012V42.203C27.1085 42.0415 27.0595 41.9191 26.9616 41.8359C26.8638 41.7478 26.7292 41.7038 26.5579 41.7038H26.0953C25.5765 41.7038 25.1776 41.5912 24.8987 41.366C24.6246 41.136 24.4875 40.7469 24.4875 40.1987V39.9344C24.4875 39.4059 24.6368 39.0192 24.9354 38.7745C25.2388 38.5298 25.6744 38.4074 26.2422 38.4074C26.5407 38.4074 26.8368 38.427 27.1305 38.4661C27.4291 38.5053 27.6811 38.5469 27.8867 38.5909V39.4499C27.6615 39.4352 27.4095 39.4205 27.1305 39.4059C26.8564 39.3912 26.6019 39.3838 26.367 39.3838C26.1125 39.3838 25.9069 39.423 25.7503 39.5013C25.5986 39.5796 25.5227 39.7411 25.5227 39.9858V40.1327C25.5227 40.3235 25.5765 40.4606 25.6842 40.5438C25.7919 40.627 25.951 40.6686 26.1614 40.6686H26.6973C27.1819 40.6686 27.5441 40.8007 27.7839 41.065C28.0237 41.3293 28.1436 41.6622 28.1436 42.0635V42.3718C28.1436 42.7976 28.0629 43.1231 27.9014 43.3483C27.7447 43.5734 27.5245 43.7276 27.2406 43.8108C26.9616 43.8891 26.6337 43.9282 26.2569 43.9282ZM30.2644 43.9209C30.1469 43.9209 30.0123 43.9087 29.8606 43.8842C29.7088 43.8646 29.562 43.8157 29.4201 43.7374C29.283 43.659 29.168 43.5416 29.075 43.385C28.9869 43.2234 28.9429 43.0032 28.9429 42.7242V39.6922C28.9429 39.3691 29.0065 39.1171 29.1338 38.936C29.261 38.7549 29.4201 38.6301 29.611 38.5616C29.8018 38.4882 29.9927 38.4515 30.1836 38.4515C30.7318 38.4515 31.1894 38.4612 31.5565 38.4808C31.9235 38.5004 32.249 38.5224 32.5329 38.5469V39.4572H30.5066C30.3549 39.4572 30.2374 39.494 30.1542 39.5674C30.071 39.6408 30.0294 39.7534 30.0294 39.9051V40.6906L32.1805 40.7494V41.6083L30.0294 41.667V42.4159C30.0294 42.6068 30.0735 42.7365 30.1616 42.805C30.2546 42.8686 30.3622 42.9004 30.4846 42.9004H32.5329V43.8108C32.205 43.845 31.8354 43.8719 31.4243 43.8915C31.0132 43.9111 30.6265 43.9209 30.2644 43.9209Z" fill="#42161A"/>
</svg>
